<svg xmlns="http://www.w3.org/2000/svg" width="1336" height="48"><g clip-path="url(#clip-1370)"><path fill="#fff" d="M713.5-18.213a1.96 1.96 0 0 1-1.414.575 1.96 1.96 0 0 1-1.413-.575 1.867 1.867 0 0 1-.594-1.392c0-.544.198-1.012.594-1.406a2.24 2.24 0 0 1 .211-.186c.058-.075.122-.147.193-.217.395-.394.866-.591 1.413-.591.546 0 1.017.197 1.413.59.395.394.593.863.593 1.407a1.87 1.87 0 0 1-.593 1.392c-.063.061-.127.117-.194.168-.062.081-.132.16-.21.235zm22.199 0a1.96 1.96 0 0 1-1.414.575 1.961 1.961 0 0 1-1.414-.575 1.868 1.868 0 0 1-.592-1.392c0-.544.197-1.012.592-1.406.062-.061.125-.117.19-.17.062-.08.13-.158.206-.233.396-.394.866-.591 1.413-.591s1.018.197 1.413.59c.395.394.593.863.593 1.407a1.87 1.87 0 0 1-.593 1.392 2.257 2.257 0 0 1-.172.152c-.066.087-.14.17-.222.25zm22.199 0a1.96 1.96 0 0 1-1.414.575 1.96 1.96 0 0 1-1.413-.575 1.866 1.866 0 0 1-.593-1.392c0-.544.197-1.012.593-1.406.054-.054.11-.105.168-.152.065-.087.137-.17.219-.251.395-.394.866-.591 1.412-.591.547 0 1.018.197 1.413.59.396.394.594.863.594 1.407a1.87 1.87 0 0 1-.594 1.392c-.049.048-.099.093-.15.134a2.123 2.123 0 0 1-.235.269zm67.19-1.392c0 .544-.198 1.008-.593 1.392a1.96 1.96 0 0 1-1.414.575 1.96 1.96 0 0 1-1.414-.575 1.868 1.868 0 0 1-.593-1.392c0-.544.198-1.012.593-1.406.396-.393.867-.59 1.414-.59.547 0 1.018.197 1.414.59.395.394.593.862.593 1.406zm22.199 0c0 .544-.198 1.008-.593 1.392a1.96 1.96 0 0 1-1.414.575 1.961 1.961 0 0 1-1.414-.575 1.868 1.868 0 0 1-.592-1.392c0-.544.197-1.012.592-1.406.396-.393.867-.59 1.414-.59.547 0 1.018.197 1.414.59.395.394.593.862.593 1.406zm22.198 0c0 .544-.197 1.008-.592 1.392a1.96 1.96 0 0 1-1.414.575 1.96 1.96 0 0 1-1.414-.575 1.868 1.868 0 0 1-.593-1.392c0-.544.198-1.012.593-1.406.396-.393.867-.59 1.414-.59.547 0 1.018.197 1.414.59.395.394.592.862.592 1.406zm22.2 0c0 .544-.198 1.008-.593 1.392a1.96 1.96 0 0 1-1.414.575 1.961 1.961 0 0 1-1.414-.575 1.868 1.868 0 0 1-.593-1.392c0-.544.198-1.012.593-1.406.396-.393.867-.59 1.414-.59.547 0 1.018.197 1.414.59.395.394.593.862.593 1.406zm22.2 0c0 .544-.199 1.008-.595 1.392a1.96 1.96 0 0 1-1.413.575 1.959 1.959 0 0 1-1.413-.575 1.866 1.866 0 0 1-.594-1.392c0-.544.198-1.012.594-1.406.395-.393.866-.59 1.413-.59s1.018.197 1.413.59c.396.394.594.862.594 1.406zm66.595 0c0 .544-.197 1.008-.592 1.392a1.96 1.96 0 0 1-1.414.575 1.96 1.96 0 0 1-1.414-.575 1.868 1.868 0 0 1-.593-1.392c0-.544.198-1.012.593-1.406.396-.393.867-.59 1.414-.59.547 0 1.018.197 1.414.59.395.394.592.862.592 1.406zm22.2 0c0 .544-.198 1.008-.594 1.392a1.959 1.959 0 0 1-1.413.575 1.96 1.96 0 0 1-1.414-.575 1.867 1.867 0 0 1-.593-1.392c0-.544.198-1.012.593-1.406.396-.393.867-.59 1.414-.59.547 0 1.018.197 1.413.59.396.394.594.862.594 1.406zm22.198 0c0 .544-.197 1.008-.593 1.392a1.96 1.96 0 0 1-1.413.575 1.961 1.961 0 0 1-1.414-.575 1.868 1.868 0 0 1-.593-1.392c0-.544.198-1.012.593-1.406.396-.393.867-.59 1.414-.59.547 0 1.018.197 1.413.59.396.394.593.862.593 1.406zm22.2 0c0 .544-.198 1.008-.593 1.392a1.961 1.961 0 0 1-1.414.575 1.96 1.96 0 0 1-1.414-.575 1.866 1.866 0 0 1-.593-1.392c0-.544.198-1.012.593-1.406.396-.393.867-.59 1.414-.59.547 0 1.018.197 1.414.59.395.394.593.862.593 1.406zM758.49 2.278c0 .544-.198 1.008-.593 1.392a1.96 1.96 0 0 1-1.414.575 1.96 1.96 0 0 1-1.413-.575 1.866 1.866 0 0 1-.593-1.392c0-.544.197-1.013.593-1.406.395-.393.866-.59 1.413-.59s1.018.197 1.414.59c.395.393.593.862.593 1.406zm22.199 0c0 .544-.197 1.008-.593 1.392a1.96 1.96 0 0 1-1.414.575 1.961 1.961 0 0 1-1.414-.575 1.868 1.868 0 0 1-.593-1.392c0-.544.198-1.013.593-1.406.396-.393.867-.59 1.414-.59.547 0 1.018.197 1.414.59.396.393.593.862.593 1.406zm22.2 0c0 .544-.199 1.008-.594 1.392a1.961 1.961 0 0 1-1.414.575 1.96 1.96 0 0 1-1.413-.575 1.866 1.866 0 0 1-.593-1.392c0-.544.197-1.013.593-1.406.395-.393.866-.59 1.413-.59s1.018.197 1.414.59c.395.393.593.862.593 1.406zm22.198 0c0 .544-.198 1.008-.593 1.392a1.96 1.96 0 0 1-1.414.575 1.96 1.96 0 0 1-1.414-.575 1.868 1.868 0 0 1-.593-1.392c0-.544.198-1.013.593-1.406.396-.393.867-.59 1.414-.59.547 0 1.018.197 1.414.59.395.393.593.862.593 1.406zm22.199 0c0 .544-.198 1.008-.593 1.392a1.96 1.96 0 0 1-1.414.575 1.961 1.961 0 0 1-1.414-.575 1.868 1.868 0 0 1-.592-1.392c0-.544.197-1.013.592-1.406.396-.393.867-.59 1.414-.59.547 0 1.018.197 1.414.59.395.393.593.862.593 1.406zm22.198 0c0 .544-.197 1.008-.592 1.392a1.96 1.96 0 0 1-1.414.575 1.96 1.96 0 0 1-1.414-.575 1.868 1.868 0 0 1-.593-1.392c0-.544.198-1.013.593-1.406.396-.393.867-.59 1.414-.59.547 0 1.018.197 1.414.59.395.393.592.862.592 1.406zm22.2 0c0 .544-.198 1.008-.593 1.392a1.96 1.96 0 0 1-1.414.575 1.961 1.961 0 0 1-1.414-.575 1.868 1.868 0 0 1-.593-1.392c0-.544.198-1.013.593-1.406.396-.393.867-.59 1.414-.59.547 0 1.018.197 1.414.59.395.393.593.862.593 1.406zm22.2 0c0 .544-.199 1.008-.595 1.392a1.96 1.96 0 0 1-1.413.575 1.959 1.959 0 0 1-1.413-.575 1.866 1.866 0 0 1-.594-1.392c0-.544.198-1.013.594-1.406.395-.393.866-.59 1.413-.59s1.018.197 1.413.59c.396.393.594.862.594 1.406zm22.198 0c0 .544-.198 1.008-.593 1.392a1.961 1.961 0 0 1-1.414.575 1.96 1.96 0 0 1-1.414-.575 1.868 1.868 0 0 1-.593-1.392c0-.544.198-1.013.593-1.406.396-.393.867-.59 1.414-.59.547 0 1.018.197 1.414.59.395.393.593.862.593 1.406zm22.199 0c0 .544-.198 1.008-.594 1.392a1.96 1.96 0 0 1-1.413.575 1.959 1.959 0 0 1-1.414-.575 1.867 1.867 0 0 1-.593-1.392c0-.544.198-1.013.593-1.406.396-.393.867-.59 1.414-.59.547 0 1.018.197 1.413.59.396.393.594.862.594 1.406zm22.198 0c0 .544-.197 1.008-.592 1.392a1.96 1.96 0 0 1-1.414.575 1.96 1.96 0 0 1-1.414-.575 1.868 1.868 0 0 1-.593-1.392c0-.544.198-1.013.593-1.406.396-.393.867-.59 1.414-.59.547 0 1.018.197 1.414.59.395.393.592.862.592 1.406zm22.2 0c0 .544-.198 1.008-.594 1.392a1.959 1.959 0 0 1-1.413.575 1.96 1.96 0 0 1-1.414-.575 1.867 1.867 0 0 1-.593-1.392c0-.544.198-1.013.593-1.406.396-.393.867-.59 1.414-.59.547 0 1.018.197 1.413.59.396.393.594.862.594 1.406zm22.198 0c0 .544-.197 1.008-.593 1.392a1.96 1.96 0 0 1-1.413.575 1.961 1.961 0 0 1-1.414-.575 1.868 1.868 0 0 1-.593-1.392c0-.544.198-1.013.593-1.406.396-.393.867-.59 1.414-.59.547 0 1.018.197 1.413.59.396.393.593.862.593 1.406zm22.2 0c0 .544-.198 1.008-.593 1.392a1.961 1.961 0 0 1-1.414.575 1.96 1.96 0 0 1-1.414-.575 1.866 1.866 0 0 1-.593-1.392c0-.544.198-1.013.593-1.406.396-.393.867-.59 1.414-.59.547 0 1.018.197 1.414.59.395.393.593.862.593 1.406zM780.69 24.161c0 .544-.197 1.007-.593 1.391a1.96 1.96 0 0 1-1.414.576 1.962 1.962 0 0 1-1.414-.576 1.868 1.868 0 0 1-.593-1.391c0-.544.198-1.013.593-1.406.396-.394.867-.59 1.414-.59.547 0 1.018.196 1.414.59.396.393.593.862.593 1.406zm22.2 0c0 .544-.199 1.007-.594 1.391a1.962 1.962 0 0 1-1.414.576 1.96 1.96 0 0 1-1.413-.576 1.865 1.865 0 0 1-.593-1.391c0-.544.197-1.013.593-1.406.395-.394.866-.59 1.413-.59s1.018.196 1.414.59c.395.393.593.862.593 1.406zm44.397 0c0 .544-.198 1.007-.593 1.391a1.96 1.96 0 0 1-1.414.576 1.962 1.962 0 0 1-1.414-.576 1.868 1.868 0 0 1-.592-1.391c0-.544.197-1.013.592-1.406.396-.394.867-.59 1.414-.59.547 0 1.018.196 1.414.59.395.393.593.862.593 1.406zm22.198 0c0 .544-.197 1.007-.592 1.391a1.96 1.96 0 0 1-1.414.576 1.96 1.96 0 0 1-1.414-.576 1.868 1.868 0 0 1-.593-1.391c0-.544.198-1.013.593-1.406.396-.394.867-.59 1.414-.59.547 0 1.018.196 1.414.59.395.393.592.862.592 1.406zm22.2 0c0 .544-.198 1.007-.593 1.391a1.96 1.96 0 0 1-1.414.576 1.962 1.962 0 0 1-1.414-.576 1.868 1.868 0 0 1-.593-1.391c0-.544.198-1.013.593-1.406.396-.394.867-.59 1.414-.59.547 0 1.018.196 1.414.59.395.393.593.862.593 1.406zm22.2 0c0 .544-.199 1.007-.595 1.391a1.96 1.96 0 0 1-1.413.576 1.96 1.96 0 0 1-1.413-.576 1.866 1.866 0 0 1-.594-1.391c0-.544.198-1.013.594-1.406.395-.394.866-.59 1.413-.59s1.018.196 1.413.59c.396.393.594.862.594 1.406zm22.198 0c0 .544-.198 1.007-.593 1.391a1.962 1.962 0 0 1-1.414.576 1.96 1.96 0 0 1-1.414-.576 1.868 1.868 0 0 1-.593-1.391c0-.544.198-1.013.593-1.406.396-.394.867-.59 1.414-.59.547 0 1.018.196 1.414.59.395.393.593.862.593 1.406zm22.199 0c0 .544-.198 1.007-.594 1.391a1.96 1.96 0 0 1-1.413.576 1.96 1.96 0 0 1-1.414-.576 1.867 1.867 0 0 1-.593-1.391c0-.544.198-1.013.593-1.406.396-.394.867-.59 1.414-.59.547 0 1.018.196 1.413.59.396.393.594.862.594 1.406zm22.198 0c0 .544-.197 1.007-.592 1.391a1.96 1.96 0 0 1-1.414.576 1.96 1.96 0 0 1-1.414-.576 1.868 1.868 0 0 1-.593-1.391c0-.544.198-1.013.593-1.406.396-.394.867-.59 1.414-.59.547 0 1.018.196 1.414.59.395.393.592.862.592 1.406zm22.2 0c0 .544-.198 1.007-.594 1.391a1.96 1.96 0 0 1-1.413.576 1.96 1.96 0 0 1-1.414-.576 1.867 1.867 0 0 1-.593-1.391c0-.544.198-1.013.593-1.406.396-.394.867-.59 1.414-.59.547 0 1.018.196 1.413.59.396.393.594.862.594 1.406zm44.398 0c0 .544-.198 1.007-.593 1.391a1.962 1.962 0 0 1-1.414.576 1.96 1.96 0 0 1-1.414-.576 1.865 1.865 0 0 1-.593-1.391c0-.544.198-1.013.593-1.406.396-.394.867-.59 1.414-.59.547 0 1.018.196 1.414.59.395.393.593.862.593 1.406zM802.889 46.043c0 .545-.198 1.008-.593 1.392a1.961 1.961 0 0 1-1.414.575 1.96 1.96 0 0 1-1.413-.575 1.866 1.866 0 0 1-.593-1.392c0-.543.197-1.012.593-1.405.395-.394.866-.59 1.413-.59s1.018.196 1.414.59c.395.393.593.862.593 1.405zm44.398 0c0 .545-.198 1.008-.593 1.392a1.96 1.96 0 0 1-1.414.575 1.961 1.961 0 0 1-1.414-.575 1.868 1.868 0 0 1-.592-1.392c0-.543.197-1.012.592-1.405.396-.394.867-.59 1.414-.59.547 0 1.018.196 1.414.59.395.393.593.862.593 1.405zm22.198 0c0 .545-.197 1.008-.592 1.392a1.96 1.96 0 0 1-1.414.575 1.96 1.96 0 0 1-1.414-.575 1.868 1.868 0 0 1-.593-1.392c0-.543.198-1.012.593-1.405.396-.394.867-.59 1.414-.59.547 0 1.018.196 1.414.59.395.393.592.862.592 1.405zm66.598 0c0 .545-.198 1.008-.593 1.392a1.961 1.961 0 0 1-1.414.575 1.96 1.96 0 0 1-1.414-.575 1.868 1.868 0 0 1-.593-1.392c0-.543.198-1.012.593-1.405.396-.394.867-.59 1.414-.59.547 0 1.018.196 1.414.59.395.393.593.862.593 1.405zm22.199 0c0 .545-.198 1.008-.594 1.392a1.96 1.96 0 0 1-1.413.575 1.959 1.959 0 0 1-1.414-.575 1.867 1.867 0 0 1-.593-1.392c0-.543.198-1.012.593-1.405.396-.394.867-.59 1.414-.59.547 0 1.018.196 1.413.59.396.393.594.862.594 1.405zm22.198 0c0 .545-.197 1.008-.592 1.392a1.96 1.96 0 0 1-1.414.575 1.96 1.96 0 0 1-1.414-.575 1.868 1.868 0 0 1-.593-1.392c0-.543.198-1.012.593-1.405.396-.394.867-.59 1.414-.59.547 0 1.018.196 1.414.59.395.393.592.862.592 1.405zm22.2 0c0 .545-.198 1.008-.594 1.392a1.959 1.959 0 0 1-1.413.575 1.96 1.96 0 0 1-1.414-.575 1.867 1.867 0 0 1-.593-1.392c0-.543.198-1.012.593-1.405.396-.394.867-.59 1.414-.59.547 0 1.018.196 1.413.59.396.393.594.862.594 1.405zm22.198 0c0 .545-.197 1.008-.593 1.392a1.96 1.96 0 0 1-1.413.575 1.961 1.961 0 0 1-1.414-.575 1.868 1.868 0 0 1-.593-1.392c0-.543.198-1.012.593-1.405.396-.394.867-.59 1.414-.59.547 0 1.018.196 1.413.59.396.393.593.862.593 1.405zm22.2 0c0 .545-.198 1.008-.593 1.392a1.961 1.961 0 0 1-1.414.575 1.96 1.96 0 0 1-1.414-.575 1.866 1.866 0 0 1-.593-1.392c0-.543.198-1.012.593-1.405.396-.394.867-.59 1.414-.59.547 0 1.018.196 1.414.59.395.393.593.862.593 1.405zm22.636-66.05a1.87 1.87 0 0 1-.593 1.391 1.959 1.959 0 0 1-1.413.576 1.96 1.96 0 0 1-1.413-.576 1.87 1.87 0 0 1-.593-1.392c0-.544.197-1.013.593-1.406.395-.394.866-.591 1.413-.591s1.018.197 1.413.59c.395.394.593.863.593 1.407zm22.19 0a1.87 1.87 0 0 1-.593 1.391 1.961 1.961 0 0 1-1.413.576 1.959 1.959 0 0 1-1.413-.576 1.87 1.87 0 0 1-.593-1.392c0-.544.198-1.013.593-1.406.395-.394.867-.591 1.413-.591s1.017.197 1.413.59c.396.394.593.863.593 1.407zm44.381 0a1.87 1.87 0 0 1-.593 1.391 1.959 1.959 0 0 1-1.413.576 1.959 1.959 0 0 1-1.413-.576 1.87 1.87 0 0 1-.593-1.392c0-.544.197-1.013.593-1.406.395-.394.866-.591 1.413-.591.546 0 1.018.197 1.413.59.395.394.593.863.593 1.407zm22.19 0c0 .544-.197 1.007-.593 1.391a1.958 1.958 0 0 1-1.413.576 1.959 1.959 0 0 1-1.413-.576 1.87 1.87 0 0 1-.593-1.392c0-.544.198-1.013.593-1.406.395-.394.866-.591 1.413-.591s1.018.197 1.413.59c.396.394.593.863.593 1.407zm22.19 0a1.87 1.87 0 0 1-.592 1.391 1.959 1.959 0 0 1-1.414.576 1.96 1.96 0 0 1-1.413-.576 1.87 1.87 0 0 1-.592-1.392c0-.544.197-1.013.592-1.406.396-.394.867-.591 1.413-.591.547 0 1.018.197 1.414.59.395.394.593.863.593 1.407zm22.19 0a1.87 1.87 0 0 1-.592 1.391 1.96 1.96 0 0 1-1.413.576 1.959 1.959 0 0 1-1.413-.576 1.87 1.87 0 0 1-.593-1.392c0-.544.198-1.013.593-1.406.395-.394.866-.591 1.413-.591.546 0 1.017.197 1.413.59.395.394.593.863.593 1.407zm22.191 0a1.87 1.87 0 0 1-.593 1.391 1.958 1.958 0 0 1-1.413.576 1.957 1.957 0 0 1-1.413-.576 1.869 1.869 0 0 1-.593-1.392c0-.544.198-1.013.593-1.406.396-.394.866-.591 1.413-.591s1.018.197 1.413.59c.395.394.593.863.593 1.407zm22.19 0a1.87 1.87 0 0 1-.593 1.391 1.958 1.958 0 0 1-1.412.576 1.958 1.958 0 0 1-1.413-.576 1.87 1.87 0 0 1-.594-1.392c0-.544.198-1.013.594-1.406.395-.394.866-.591 1.413-.591.546 0 1.017.197 1.412.59.396.394.594.863.594 1.407zm22.19 0c0 .544-.196 1.007-.592 1.391a1.958 1.958 0 0 1-1.413.576 1.958 1.958 0 0 1-1.413-.576 1.87 1.87 0 0 1-.593-1.392c0-.544.198-1.013.593-1.406.395-.394.866-.591 1.413-.591.546 0 1.017.197 1.413.59.396.394.593.863.593 1.407zm22.191 0a1.87 1.87 0 0 1-.593 1.391 1.959 1.959 0 0 1-1.413.576 1.96 1.96 0 0 1-1.413-.576 1.87 1.87 0 0 1-.592-1.392c0-.544.197-1.013.592-1.406.396-.394.866-.591 1.413-.591s1.018.197 1.413.59c.395.394.593.863.593 1.407zm22.19 0a1.87 1.87 0 0 1-.592 1.391 1.96 1.96 0 0 1-1.413.576 1.959 1.959 0 0 1-1.413-.576 1.87 1.87 0 0 1-.594-1.392c0-.544.198-1.013.594-1.406.395-.394.866-.591 1.413-.591.546 0 1.017.197 1.413.59.395.394.592.863.592 1.407zm22.19 0a1.87 1.87 0 0 1-.592 1.391 1.959 1.959 0 0 1-1.413.576 1.958 1.958 0 0 1-1.413-.576 1.868 1.868 0 0 1-.593-1.392c0-.544.198-1.013.593-1.406.395-.394.866-.591 1.413-.591s1.018.197 1.413.59c.395.394.593.863.593 1.407zM1069.715 1.884a1.87 1.87 0 0 1-.593 1.392 1.959 1.959 0 0 1-1.413.575 1.96 1.96 0 0 1-1.413-.575 1.87 1.87 0 0 1-.593-1.392c0-.544.197-1.014.593-1.407.395-.394.866-.59 1.413-.59s1.018.196 1.413.59c.395.393.593.863.593 1.407zm22.19 0a1.87 1.87 0 0 1-.593 1.392 1.961 1.961 0 0 1-1.413.575 1.959 1.959 0 0 1-1.413-.575 1.87 1.87 0 0 1-.593-1.392c0-.544.198-1.014.593-1.407.395-.394.867-.59 1.413-.59s1.017.196 1.413.59c.396.393.593.863.593 1.407zm22.19 0a1.87 1.87 0 0 1-.593 1.392 1.959 1.959 0 0 1-1.413.575 1.957 1.957 0 0 1-1.412-.575 1.867 1.867 0 0 1-.593-1.392c0-.544.197-1.014.593-1.407.395-.394.865-.59 1.412-.59.547 0 1.018.196 1.413.59.395.393.593.863.593 1.407zm22.191 0a1.87 1.87 0 0 1-.593 1.392 1.959 1.959 0 0 1-1.413.575 1.959 1.959 0 0 1-1.413-.575 1.87 1.87 0 0 1-.593-1.392c0-.544.197-1.014.593-1.407.395-.394.866-.59 1.413-.59.546 0 1.018.196 1.413.59.395.393.593.863.593 1.407zm22.19 0c0 .544-.197 1.008-.593 1.392a1.958 1.958 0 0 1-1.413.575 1.959 1.959 0 0 1-1.413-.575 1.87 1.87 0 0 1-.593-1.392c0-.544.198-1.014.593-1.407.395-.394.866-.59 1.413-.59s1.018.196 1.413.59c.396.393.593.863.593 1.407zm22.19 0a1.87 1.87 0 0 1-.592 1.392 1.959 1.959 0 0 1-1.414.575 1.96 1.96 0 0 1-1.413-.575 1.87 1.87 0 0 1-.592-1.392c0-.544.197-1.014.592-1.407.396-.394.867-.59 1.413-.59.547 0 1.018.196 1.414.59.395.393.593.863.593 1.407zm44.381 0a1.87 1.87 0 0 1-.593 1.392 1.958 1.958 0 0 1-1.413.575 1.957 1.957 0 0 1-1.413-.575 1.869 1.869 0 0 1-.593-1.392c0-.544.198-1.014.593-1.407.396-.394.866-.59 1.413-.59s1.018.196 1.413.59c.395.393.593.863.593 1.407zm22.19 0a1.87 1.87 0 0 1-.593 1.392 1.958 1.958 0 0 1-1.412.575 1.958 1.958 0 0 1-1.413-.575 1.87 1.87 0 0 1-.594-1.392c0-.544.198-1.014.594-1.407.395-.394.866-.59 1.413-.59.546 0 1.017.196 1.412.59.396.393.594.863.594 1.407zm22.19 0c0 .544-.196 1.008-.592 1.392a1.958 1.958 0 0 1-1.413.575 1.958 1.958 0 0 1-1.413-.575 1.87 1.87 0 0 1-.593-1.392c0-.544.198-1.014.593-1.407.395-.394.866-.59 1.413-.59.546 0 1.017.196 1.413.59.396.393.593.863.593 1.407zm22.191 0a1.87 1.87 0 0 1-.593 1.392 1.959 1.959 0 0 1-1.413.575 1.96 1.96 0 0 1-1.413-.575 1.87 1.87 0 0 1-.592-1.392c0-.544.197-1.014.592-1.407.396-.394.866-.59 1.413-.59s1.018.196 1.413.59c.395.393.593.863.593 1.407zm22.19 0a1.87 1.87 0 0 1-.592 1.392 1.96 1.96 0 0 1-1.413.575 1.959 1.959 0 0 1-1.413-.575 1.87 1.87 0 0 1-.594-1.392c0-.544.198-1.014.594-1.407.395-.394.866-.59 1.413-.59.546 0 1.017.196 1.413.59.395.393.592.863.592 1.407zm-221.903 21.892a1.87 1.87 0 0 1-.593 1.392 1.961 1.961 0 0 1-1.413.576 1.959 1.959 0 0 1-1.413-.576 1.87 1.87 0 0 1-.593-1.392c0-.544.198-1.013.593-1.406.395-.394.867-.59 1.413-.59s1.017.196 1.413.59c.396.393.593.862.593 1.406zm22.19 0a1.87 1.87 0 0 1-.593 1.392 1.959 1.959 0 0 1-1.413.576 1.957 1.957 0 0 1-1.412-.576 1.867 1.867 0 0 1-.593-1.392c0-.544.197-1.013.593-1.406.395-.394.865-.59 1.412-.59.547 0 1.018.196 1.413.59.395.393.593.862.593 1.406zm22.191 0a1.87 1.87 0 0 1-.593 1.392 1.959 1.959 0 0 1-1.413.576 1.959 1.959 0 0 1-1.413-.576 1.87 1.87 0 0 1-.593-1.392c0-.544.197-1.013.593-1.406.395-.394.866-.59 1.413-.59.546 0 1.018.196 1.413.59.395.393.593.862.593 1.406zm22.19 0c0 .545-.197 1.008-.593 1.392a1.958 1.958 0 0 1-1.413.576 1.959 1.959 0 0 1-1.413-.576 1.87 1.87 0 0 1-.593-1.392c0-.544.198-1.013.593-1.406.395-.394.866-.59 1.413-.59s1.018.196 1.413.59c.396.393.593.862.593 1.406zm22.19 0a1.87 1.87 0 0 1-.592 1.392 1.959 1.959 0 0 1-1.414.576 1.96 1.96 0 0 1-1.413-.576 1.87 1.87 0 0 1-.592-1.392c0-.544.197-1.013.592-1.406.396-.394.867-.59 1.413-.59.547 0 1.018.196 1.414.59.395.393.593.862.593 1.406zm22.19 0a1.87 1.87 0 0 1-.592 1.392 1.96 1.96 0 0 1-1.413.576 1.959 1.959 0 0 1-1.413-.576 1.87 1.87 0 0 1-.593-1.392c0-.544.198-1.013.593-1.406.395-.394.866-.59 1.413-.59.546 0 1.017.196 1.413.59.395.393.593.862.593 1.406zm22.191 0a1.87 1.87 0 0 1-.593 1.392 1.958 1.958 0 0 1-1.413.576 1.957 1.957 0 0 1-1.413-.576 1.869 1.869 0 0 1-.593-1.392c0-.544.198-1.013.593-1.406.396-.394.866-.59 1.413-.59s1.018.196 1.413.59c.395.393.593.862.593 1.406zm44.38 0c0 .545-.196 1.008-.592 1.392a1.958 1.958 0 0 1-1.413.576 1.958 1.958 0 0 1-1.413-.576 1.87 1.87 0 0 1-.593-1.392c0-.544.198-1.013.593-1.406.395-.394.866-.59 1.413-.59.546 0 1.017.196 1.413.59.396.393.593.862.593 1.406zm22.191 0a1.87 1.87 0 0 1-.593 1.392 1.959 1.959 0 0 1-1.413.576 1.96 1.96 0 0 1-1.413-.576 1.87 1.87 0 0 1-.592-1.392c0-.544.197-1.013.592-1.406.396-.394.866-.59 1.413-.59s1.018.196 1.413.59c.395.393.593.862.593 1.406zm22.19 0a1.87 1.87 0 0 1-.592 1.392 1.96 1.96 0 0 1-1.413.576 1.959 1.959 0 0 1-1.413-.576 1.87 1.87 0 0 1-.594-1.392c0-.544.198-1.013.594-1.406.395-.394.866-.59 1.413-.59.546 0 1.017.196 1.413.59.395.393.592.862.592 1.406zm22.19 0a1.87 1.87 0 0 1-.592 1.392 1.959 1.959 0 0 1-1.413.576 1.958 1.958 0 0 1-1.413-.576 1.868 1.868 0 0 1-.593-1.392c0-.544.198-1.013.593-1.406.395-.394.866-.59 1.413-.59s1.018.196 1.413.59c.395.393.593.862.593 1.406zM1091.905 45.67a1.87 1.87 0 0 1-.593 1.392 1.961 1.961 0 0 1-1.413.575 1.959 1.959 0 0 1-1.413-.575 1.87 1.87 0 0 1-.593-1.392c0-.544.198-1.014.593-1.407.395-.393.867-.59 1.413-.59s1.017.197 1.413.59c.396.393.593.863.593 1.407zm88.762 0a1.87 1.87 0 0 1-.593 1.392 1.959 1.959 0 0 1-1.414.575 1.96 1.96 0 0 1-1.413-.575 1.87 1.87 0 0 1-.592-1.392c0-.544.197-1.014.592-1.407.396-.393.867-.59 1.413-.59.547 0 1.018.197 1.414.59.395.393.593.863.593 1.407zm22.19 0a1.87 1.87 0 0 1-.593 1.392 1.96 1.96 0 0 1-1.413.575 1.959 1.959 0 0 1-1.413-.575 1.87 1.87 0 0 1-.593-1.392c0-.544.198-1.014.593-1.407.395-.393.866-.59 1.413-.59.546 0 1.017.197 1.413.59.395.393.593.863.593 1.407zm88.761 0a1.87 1.87 0 0 1-.593 1.392 1.959 1.959 0 0 1-1.413.575 1.96 1.96 0 0 1-1.413-.575 1.87 1.87 0 0 1-.592-1.392c0-.544.197-1.014.592-1.407.396-.393.866-.59 1.413-.59s1.018.197 1.413.59c.395.393.593.863.593 1.407zm22.19 0a1.87 1.87 0 0 1-.592 1.392 1.96 1.96 0 0 1-1.413.575 1.959 1.959 0 0 1-1.413-.575 1.87 1.87 0 0 1-.594-1.392c0-.544.198-1.014.594-1.407.395-.393.866-.59 1.413-.59.546 0 1.017.197 1.413.59.395.393.592.863.592 1.407zM136.378-18.213a1.96 1.96 0 0 1-1.413.575 1.96 1.96 0 0 1-1.414-.575 1.868 1.868 0 0 1-.593-1.392c0-.4.107-.758.32-1.076.097-.268.257-.513.479-.733.395-.394.866-.591 1.413-.591s1.018.197 1.413.59c.395.394.593.863.593 1.407 0 .397-.105.751-.315 1.062-.097.27-.258.515-.483.733zm22.2 0a1.96 1.96 0 0 1-1.414.575 1.96 1.96 0 0 1-1.414-.575 1.867 1.867 0 0 1-.593-1.392c0-.393.104-.748.31-1.062.097-.274.259-.523.484-.747.395-.394.866-.591 1.413-.591s1.018.197 1.414.59c.395.394.593.863.593 1.407 0 .391-.102.74-.306 1.049-.096.275-.259.524-.488.746zm22.198 0a1.96 1.96 0 0 1-1.414.575 1.961 1.961 0 0 1-1.413-.575 1.868 1.868 0 0 1-.593-1.392c0-.387.1-.737.3-1.048.097-.28.26-.533.49-.761.395-.394.866-.591 1.413-.591s1.018.197 1.413.59c.395.394.593.863.593 1.407 0 .385-.099.729-.296 1.033-.095.282-.26.536-.493.762zm67.19-1.392c0 .544-.197 1.008-.593 1.392a1.961 1.961 0 0 1-1.413.575 1.959 1.959 0 0 1-1.414-.575 1.866 1.866 0 0 1-.593-1.392c0-.544.197-1.012.593-1.406.395-.393.866-.59 1.414-.59.546 0 1.018.197 1.413.59.396.394.593.862.593 1.406zm22.2 0c0 .544-.198 1.008-.594 1.392a1.96 1.96 0 0 1-1.414.575 1.959 1.959 0 0 1-1.413-.575 1.867 1.867 0 0 1-.593-1.392c0-.544.198-1.012.593-1.406.395-.393.867-.59 1.413-.59.547 0 1.019.197 1.414.59.396.394.594.862.594 1.406zm22.198 0c0 .544-.198 1.008-.593 1.392a1.96 1.96 0 0 1-1.414.575 1.961 1.961 0 0 1-1.413-.575 1.868 1.868 0 0 1-.593-1.392c0-.544.198-1.012.593-1.406.396-.393.867-.59 1.413-.59.547 0 1.019.197 1.414.59.395.394.593.862.593 1.406zm22.2 0c0 .544-.198 1.008-.594 1.392a1.958 1.958 0 0 1-1.413.575 1.96 1.96 0 0 1-1.414-.575 1.866 1.866 0 0 1-.593-1.392c0-.544.197-1.012.593-1.406.395-.393.867-.59 1.414-.59.547 0 1.018.197 1.413.59.396.394.594.862.594 1.406zm22.198 0c0 .544-.198 1.008-.593 1.392a1.96 1.96 0 0 1-1.414.575 1.96 1.96 0 0 1-1.413-.575 1.868 1.868 0 0 1-.593-1.392c0-.544.198-1.012.593-1.406.396-.393.867-.59 1.413-.59.547 0 1.018.197 1.414.59.395.394.593.862.593 1.406zm66.597 0c0 .544-.198 1.008-.593 1.392a1.96 1.96 0 0 1-1.414.575 1.96 1.96 0 0 1-1.413-.575 1.867 1.867 0 0 1-.593-1.392c0-.544.197-1.012.593-1.406.395-.393.866-.59 1.413-.59s1.019.197 1.414.59c.395.394.593.862.593 1.406zm22.199 0c0 .544-.197 1.008-.593 1.392a1.96 1.96 0 0 1-1.414.575 1.961 1.961 0 0 1-1.413-.575 1.868 1.868 0 0 1-.593-1.392c0-.544.197-1.012.593-1.406.395-.393.867-.59 1.413-.59.547 0 1.019.197 1.414.59.396.394.593.862.593 1.406zm22.2 0c0 .544-.199 1.008-.594 1.392a1.96 1.96 0 0 1-1.414.575 1.96 1.96 0 0 1-1.413-.575 1.868 1.868 0 0 1-.593-1.392c0-.544.198-1.012.593-1.406.396-.393.867-.59 1.413-.59.547 0 1.018.197 1.414.59.395.394.593.862.593 1.406zm22.198 0c0 .544-.197 1.008-.593 1.392a1.96 1.96 0 0 1-1.414.575 1.96 1.96 0 0 1-1.413-.575 1.868 1.868 0 0 1-.594-1.392c0-.544.198-1.012.594-1.406.395-.393.866-.59 1.413-.59s1.019.197 1.414.59c.396.394.593.862.593 1.406zM180.776 3.67a1.96 1.96 0 0 1-1.414.575 1.961 1.961 0 0 1-1.413-.575 1.868 1.868 0 0 1-.593-1.392c0-.392.103-.745.308-1.06a1.98 1.98 0 0 1 .482-.74c.395-.394.866-.59 1.413-.59s1.018.196 1.413.59c.395.393.593.863.593 1.407 0 .389-.1.737-.303 1.044-.096.273-.258.52-.486.74zm22.793-1.392c0 .544-.198 1.008-.594 1.392a1.96 1.96 0 0 1-1.413.575 1.96 1.96 0 0 1-1.414-.575 1.866 1.866 0 0 1-.593-1.392c0-.544.197-1.013.593-1.406.395-.393.867-.59 1.414-.59.547 0 1.018.197 1.413.59.396.393.594.862.594 1.406zm22.198 0c0 .544-.197 1.008-.593 1.392a1.96 1.96 0 0 1-1.414.575 1.958 1.958 0 0 1-1.412-.575 1.866 1.866 0 0 1-.594-1.392c0-.544.198-1.013.594-1.406.395-.393.866-.59 1.413-.59.546 0 1.018.197 1.413.59.396.393.593.862.593 1.406zm22.2 0c0 .544-.198 1.008-.594 1.392a1.961 1.961 0 0 1-1.413.575 1.959 1.959 0 0 1-1.414-.575 1.866 1.866 0 0 1-.593-1.392c0-.544.197-1.013.593-1.406.395-.393.866-.59 1.414-.59.546 0 1.018.197 1.413.59.396.393.593.862.593 1.406zm22.199 0c0 .544-.198 1.008-.594 1.392a1.96 1.96 0 0 1-1.414.575 1.959 1.959 0 0 1-1.413-.575 1.867 1.867 0 0 1-.593-1.392c0-.544.198-1.013.593-1.406.395-.393.867-.59 1.413-.59.547 0 1.019.197 1.414.59.396.393.594.862.594 1.406zm22.198 0c0 .544-.198 1.008-.593 1.392a1.96 1.96 0 0 1-1.414.575 1.961 1.961 0 0 1-1.413-.575 1.868 1.868 0 0 1-.593-1.392c0-.544.198-1.013.593-1.406.396-.393.867-.59 1.413-.59.547 0 1.019.197 1.414.59.395.393.593.862.593 1.406zm22.2 0c0 .544-.198 1.008-.594 1.392a1.958 1.958 0 0 1-1.413.575 1.96 1.96 0 0 1-1.414-.575 1.866 1.866 0 0 1-.593-1.392c0-.544.197-1.013.593-1.406.395-.393.867-.59 1.414-.59.547 0 1.018.197 1.413.59.396.393.594.862.594 1.406zm22.198 0c0 .544-.198 1.008-.593 1.392a1.96 1.96 0 0 1-1.414.575 1.96 1.96 0 0 1-1.413-.575 1.868 1.868 0 0 1-.593-1.392c0-.544.198-1.013.593-1.406.396-.393.867-.59 1.413-.59.547 0 1.018.197 1.414.59.395.393.593.862.593 1.406zm22.2 0c0 .544-.198 1.008-.594 1.392a1.961 1.961 0 0 1-1.413.575 1.959 1.959 0 0 1-1.414-.575 1.866 1.866 0 0 1-.593-1.392c0-.544.197-1.013.593-1.406.395-.393.866-.59 1.414-.59.546 0 1.018.197 1.413.59.396.393.593.862.593 1.406zm22.198 0c0 .544-.198 1.008-.593 1.392a1.961 1.961 0 0 1-1.414.575 1.96 1.96 0 0 1-1.413-.575 1.868 1.868 0 0 1-.593-1.392c0-.544.198-1.013.593-1.406.395-.393.867-.59 1.413-.59.547 0 1.018.197 1.414.59.395.393.593.862.593 1.406zm22.2 0c0 .544-.199 1.008-.594 1.392a1.96 1.96 0 0 1-1.414.575 1.96 1.96 0 0 1-1.413-.575 1.867 1.867 0 0 1-.593-1.392c0-.544.197-1.013.593-1.406.395-.393.866-.59 1.413-.59s1.019.197 1.414.59c.395.393.593.862.593 1.406zm22.198 0c0 .544-.197 1.008-.593 1.392a1.96 1.96 0 0 1-1.414.575 1.961 1.961 0 0 1-1.413-.575 1.868 1.868 0 0 1-.593-1.392c0-.544.197-1.013.593-1.406.395-.393.867-.59 1.413-.59.547 0 1.019.197 1.414.59.396.393.593.862.593 1.406zm22.2 0c0 .544-.199 1.008-.594 1.392a1.96 1.96 0 0 1-1.414.575 1.96 1.96 0 0 1-1.413-.575 1.868 1.868 0 0 1-.593-1.392c0-.544.198-1.013.593-1.406.396-.393.867-.59 1.413-.59.547 0 1.018.197 1.414.59.395.393.593.862.593 1.406zm22.198 0c0 .544-.197 1.008-.593 1.392a1.96 1.96 0 0 1-1.414.575 1.96 1.96 0 0 1-1.413-.575 1.868 1.868 0 0 1-.594-1.392c0-.544.198-1.013.594-1.406.395-.393.866-.59 1.413-.59s1.019.197 1.414.59c.396.393.593.862.593 1.406zm-266.98 23.274a1.961 1.961 0 0 1-1.414.576 1.96 1.96 0 0 1-1.414-.576 1.865 1.865 0 0 1-.593-1.391c0-.39.102-.743.306-1.056.097-.269.257-.513.479-.734.395-.394.866-.59 1.413-.59s1.018.196 1.414.59c.395.393.593.862.593 1.406 0 .388-.1.734-.301 1.04a1.92 1.92 0 0 1-.484.735zm22.791-1.391c0 .544-.197 1.007-.593 1.391a1.96 1.96 0 0 1-1.414.576 1.959 1.959 0 0 1-1.412-.576 1.866 1.866 0 0 1-.594-1.391c0-.544.198-1.013.594-1.406.395-.394.866-.59 1.413-.59.546 0 1.018.196 1.413.59.396.393.593.862.593 1.406zm44.399 0c0 .544-.198 1.007-.594 1.391a1.96 1.96 0 0 1-1.414.576 1.96 1.96 0 0 1-1.413-.576 1.867 1.867 0 0 1-.593-1.391c0-.544.198-1.013.593-1.406.395-.394.867-.59 1.413-.59.547 0 1.019.196 1.414.59.396.393.594.862.594 1.406zm22.198 0c0 .544-.198 1.007-.593 1.391a1.96 1.96 0 0 1-1.414.576 1.962 1.962 0 0 1-1.413-.576 1.868 1.868 0 0 1-.593-1.391c0-.544.198-1.013.593-1.406.396-.394.867-.59 1.413-.59.547 0 1.019.196 1.414.59.395.393.593.862.593 1.406zm22.2 0c0 .544-.198 1.007-.594 1.391a1.959 1.959 0 0 1-1.413.576 1.96 1.96 0 0 1-1.414-.576 1.866 1.866 0 0 1-.593-1.391c0-.544.197-1.013.593-1.406.395-.394.867-.59 1.414-.59.547 0 1.018.196 1.413.59.396.393.594.862.594 1.406zm22.198 0c0 .544-.198 1.007-.593 1.391a1.961 1.961 0 0 1-1.414.576 1.961 1.961 0 0 1-1.413-.576 1.868 1.868 0 0 1-.593-1.391c0-.544.198-1.013.593-1.406.396-.394.867-.59 1.413-.59.547 0 1.018.196 1.414.59.395.393.593.862.593 1.406zm22.2 0c0 .544-.198 1.007-.594 1.391a1.962 1.962 0 0 1-1.413.576 1.959 1.959 0 0 1-1.414-.576 1.865 1.865 0 0 1-.593-1.391c0-.544.197-1.013.593-1.406.395-.394.866-.59 1.414-.59.546 0 1.018.196 1.413.59.396.393.593.862.593 1.406zm22.198 0c0 .544-.198 1.007-.593 1.391a1.962 1.962 0 0 1-1.414.576 1.96 1.96 0 0 1-1.413-.576 1.868 1.868 0 0 1-.593-1.391c0-.544.198-1.013.593-1.406.395-.394.867-.59 1.413-.59.547 0 1.018.196 1.414.59.395.393.593.862.593 1.406zm22.2 0c0 .544-.199 1.007-.594 1.391a1.96 1.96 0 0 1-1.414.576 1.96 1.96 0 0 1-1.413-.576 1.866 1.866 0 0 1-.593-1.391c0-.544.197-1.013.593-1.406.395-.394.866-.59 1.413-.59s1.019.196 1.414.59c.395.393.593.862.593 1.406zm22.198 0c0 .544-.197 1.007-.593 1.391a1.96 1.96 0 0 1-1.414.576 1.962 1.962 0 0 1-1.413-.576 1.868 1.868 0 0 1-.593-1.391c0-.544.197-1.013.593-1.406.395-.394.867-.59 1.413-.59.547 0 1.019.196 1.414.59.396.393.593.862.593 1.406zm44.398 0c0 .544-.197 1.007-.593 1.391a1.96 1.96 0 0 1-1.414.576 1.961 1.961 0 0 1-1.413-.576 1.868 1.868 0 0 1-.594-1.391c0-.544.198-1.013.594-1.406.395-.394.866-.59 1.413-.59s1.019.196 1.414.59c.396.393.593.862.593 1.406zM225.767 46.043c0 .545-.197 1.008-.593 1.392a1.96 1.96 0 0 1-1.414.575 1.958 1.958 0 0 1-1.412-.575 1.866 1.866 0 0 1-.594-1.392c0-.543.198-1.012.594-1.405.395-.394.866-.59 1.413-.59.546 0 1.018.196 1.413.59.396.393.593.862.593 1.405zm44.399 0c0 .545-.198 1.008-.594 1.392a1.96 1.96 0 0 1-1.414.575 1.959 1.959 0 0 1-1.413-.575 1.867 1.867 0 0 1-.593-1.392c0-.543.198-1.012.593-1.405.395-.394.867-.59 1.413-.59.547 0 1.019.196 1.414.59.396.393.594.862.594 1.405zm22.198 0c0 .545-.198 1.008-.593 1.392a1.96 1.96 0 0 1-1.414.575 1.961 1.961 0 0 1-1.413-.575 1.868 1.868 0 0 1-.593-1.392c0-.543.198-1.012.593-1.405.396-.394.867-.59 1.413-.59.547 0 1.019.196 1.414.59.395.393.593.862.593 1.405zm66.597 0c0 .545-.197 1.008-.593 1.392a1.961 1.961 0 0 1-1.413.575 1.959 1.959 0 0 1-1.414-.575 1.866 1.866 0 0 1-.593-1.392c0-.543.197-1.012.593-1.405.395-.394.866-.59 1.414-.59.546 0 1.018.196 1.413.59.396.393.593.862.593 1.405zm22.199 0c0 .545-.198 1.008-.593 1.392a1.961 1.961 0 0 1-1.414.575 1.96 1.96 0 0 1-1.413-.575 1.868 1.868 0 0 1-.593-1.392c0-.543.198-1.012.593-1.405.395-.394.867-.59 1.413-.59.547 0 1.018.196 1.414.59.395.393.593.862.593 1.405zm22.2 0c0 .545-.199 1.008-.594 1.392a1.96 1.96 0 0 1-1.414.575 1.96 1.96 0 0 1-1.413-.575 1.867 1.867 0 0 1-.593-1.392c0-.543.197-1.012.593-1.405.395-.394.866-.59 1.413-.59s1.019.196 1.414.59c.395.393.593.862.593 1.405zm22.198 0c0 .545-.197 1.008-.593 1.392a1.96 1.96 0 0 1-1.414.575 1.961 1.961 0 0 1-1.413-.575 1.868 1.868 0 0 1-.593-1.392c0-.543.197-1.012.593-1.405.395-.394.867-.59 1.413-.59.547 0 1.019.196 1.414.59.396.393.593.862.593 1.405zm22.2 0c0 .545-.199 1.008-.594 1.392a1.96 1.96 0 0 1-1.414.575 1.96 1.96 0 0 1-1.413-.575 1.868 1.868 0 0 1-.593-1.392c0-.543.198-1.012.593-1.405.396-.394.867-.59 1.413-.59.547 0 1.018.196 1.414.59.395.393.593.862.593 1.405zm22.198 0c0 .545-.197 1.008-.593 1.392a1.96 1.96 0 0 1-1.414.575 1.96 1.96 0 0 1-1.413-.575 1.868 1.868 0 0 1-.594-1.392c0-.543.198-1.012.594-1.405.395-.394.866-.59 1.413-.59s1.019.196 1.414.59c.396.393.593.862.593 1.405zm22.636-66.05a1.87 1.87 0 0 1-.593 1.391 1.96 1.96 0 0 1-1.413.576 1.958 1.958 0 0 1-1.413-.576 1.87 1.87 0 0 1-.593-1.392c0-.544.198-1.013.593-1.406.396-.394.866-.591 1.413-.591s1.018.197 1.413.59c.396.394.593.863.593 1.407zm22.19 0a1.87 1.87 0 0 1-.592 1.391 1.959 1.959 0 0 1-1.414.576 1.958 1.958 0 0 1-1.412-.576 1.867 1.867 0 0 1-.593-1.392c0-.544.197-1.013.593-1.406.395-.394.866-.591 1.412-.591.547 0 1.018.197 1.414.59.395.394.593.863.593 1.407zm44.381 0c0 .544-.197 1.007-.593 1.391a1.958 1.958 0 0 1-1.412.576 1.959 1.959 0 0 1-1.414-.576 1.87 1.87 0 0 1-.593-1.392c0-.544.198-1.013.593-1.406.396-.394.867-.591 1.414-.591.546 0 1.017.197 1.412.59.396.394.593.863.593 1.407zm22.19 0a1.87 1.87 0 0 1-.592 1.391 1.959 1.959 0 0 1-1.413.576 1.959 1.959 0 0 1-1.413-.576 1.87 1.87 0 0 1-.593-1.392c0-.544.197-1.013.593-1.406.395-.394.866-.591 1.413-.591.546 0 1.018.197 1.413.59.395.394.593.863.593 1.407zm22.19 0a1.87 1.87 0 0 1-.592 1.391 1.961 1.961 0 0 1-1.413.576 1.959 1.959 0 0 1-1.413-.576 1.87 1.87 0 0 1-.593-1.392c0-.544.198-1.013.593-1.406.395-.394.866-.591 1.413-.591.546 0 1.017.197 1.413.59.396.394.593.863.593 1.407zm22.191 0a1.87 1.87 0 0 1-.593 1.391 1.959 1.959 0 0 1-1.413.576 1.957 1.957 0 0 1-1.412-.576 1.867 1.867 0 0 1-.594-1.392c0-.544.198-1.013.594-1.406.395-.394.865-.591 1.412-.591.547 0 1.018.197 1.413.59.395.394.593.863.593 1.407zm66.572 0a1.87 1.87 0 0 1-.594 1.391 1.959 1.959 0 0 1-1.413.576 1.96 1.96 0 0 1-1.413-.576 1.87 1.87 0 0 1-.592-1.392c0-.544.197-1.013.592-1.406.396-.394.867-.591 1.413-.591.547 0 1.018.197 1.413.59.396.394.594.863.594 1.407zM492.592 1.884A1.87 1.87 0 0 1 492 3.277a1.96 1.96 0 0 1-1.413.575 1.958 1.958 0 0 1-1.413-.575 1.87 1.87 0 0 1-.593-1.392c0-.544.198-1.014.593-1.407.396-.394.866-.59 1.413-.59s1.018.196 1.413.59c.396.393.593.863.593 1.407zm22.19 0a1.87 1.87 0 0 1-.592 1.392 1.959 1.959 0 0 1-1.414.575 1.958 1.958 0 0 1-1.412-.575 1.867 1.867 0 0 1-.593-1.392c0-.544.197-1.014.593-1.407.395-.394.866-.59 1.412-.59.547 0 1.018.196 1.414.59.395.393.593.863.593 1.407zm22.191 0a1.87 1.87 0 0 1-.593 1.392 1.959 1.959 0 0 1-1.413.575 1.959 1.959 0 0 1-1.413-.575 1.87 1.87 0 0 1-.593-1.392c0-.544.198-1.014.593-1.407.395-.394.866-.59 1.413-.59s1.018.196 1.413.59c.395.393.593.863.593 1.407zm22.19 0c0 .544-.197 1.008-.593 1.392a1.958 1.958 0 0 1-1.412.575 1.959 1.959 0 0 1-1.414-.575 1.87 1.87 0 0 1-.593-1.392c0-.544.198-1.014.593-1.407.396-.394.867-.59 1.414-.59.546 0 1.017.196 1.412.59.396.393.593.863.593 1.407zm22.19 0a1.87 1.87 0 0 1-.592 1.392 1.959 1.959 0 0 1-1.413.575 1.959 1.959 0 0 1-1.413-.575 1.87 1.87 0 0 1-.593-1.392c0-.544.197-1.014.593-1.407.395-.394.866-.59 1.413-.59.546 0 1.018.196 1.413.59.395.393.593.863.593 1.407zm22.19 0a1.87 1.87 0 0 1-.592 1.392 1.961 1.961 0 0 1-1.413.575 1.959 1.959 0 0 1-1.413-.575 1.87 1.87 0 0 1-.593-1.392c0-.544.198-1.014.593-1.407.395-.394.866-.59 1.413-.59.546 0 1.017.196 1.413.59.396.393.593.863.593 1.407zm44.382 0a1.87 1.87 0 0 1-.593 1.392 1.959 1.959 0 0 1-1.413.575 1.959 1.959 0 0 1-1.413-.575 1.87 1.87 0 0 1-.593-1.392c0-.544.197-1.014.593-1.407.395-.394.866-.59 1.413-.59.546 0 1.017.196 1.413.59.395.393.593.863.593 1.407zm22.19 0c0 .544-.198 1.008-.593 1.392a1.958 1.958 0 0 1-1.413.575 1.959 1.959 0 0 1-1.413-.575 1.87 1.87 0 0 1-.593-1.392c0-.544.198-1.014.593-1.407.395-.394.866-.59 1.413-.59s1.018.196 1.413.59c.395.393.593.863.593 1.407zm22.19 0a1.87 1.87 0 0 1-.593 1.392 1.959 1.959 0 0 1-1.413.575 1.96 1.96 0 0 1-1.413-.575 1.87 1.87 0 0 1-.592-1.392c0-.544.197-1.014.592-1.407.396-.394.867-.59 1.413-.59.547 0 1.018.196 1.413.59.396.393.594.863.594 1.407zm22.19 0a1.87 1.87 0 0 1-.592 1.392 1.961 1.961 0 0 1-1.413.575 1.959 1.959 0 0 1-1.413-.575 1.87 1.87 0 0 1-.593-1.392c0-.544.198-1.014.593-1.407.395-.394.866-.59 1.413-.59.546 0 1.017.196 1.413.59.395.393.593.863.593 1.407zm22.191 0a1.87 1.87 0 0 1-.593 1.392 1.959 1.959 0 0 1-1.413.575 1.957 1.957 0 0 1-1.413-.575 1.867 1.867 0 0 1-.593-1.392c0-.544.197-1.014.593-1.407.396-.394.866-.59 1.413-.59s1.018.196 1.413.59c.395.393.593.863.593 1.407zM514.783 23.777a1.87 1.87 0 0 1-.593 1.392 1.959 1.959 0 0 1-1.414.576 1.958 1.958 0 0 1-1.412-.576 1.867 1.867 0 0 1-.593-1.392c0-.544.197-1.013.593-1.406.395-.394.866-.59 1.412-.59.547 0 1.018.196 1.414.59.395.393.593.862.593 1.406zm22.19 0a1.87 1.87 0 0 1-.593 1.392 1.959 1.959 0 0 1-1.413.576 1.959 1.959 0 0 1-1.413-.576 1.87 1.87 0 0 1-.593-1.392c0-.544.198-1.013.593-1.406.395-.394.866-.59 1.413-.59s1.018.196 1.413.59c.395.393.593.862.593 1.406zm22.19 0c0 .545-.197 1.008-.593 1.392a1.958 1.958 0 0 1-1.412.576 1.959 1.959 0 0 1-1.414-.576 1.87 1.87 0 0 1-.593-1.392c0-.544.198-1.013.593-1.406.396-.394.867-.59 1.414-.59.546 0 1.017.196 1.412.59.396.393.593.862.593 1.406zm22.19 0a1.87 1.87 0 0 1-.592 1.392 1.959 1.959 0 0 1-1.413.576 1.959 1.959 0 0 1-1.413-.576 1.87 1.87 0 0 1-.593-1.392c0-.544.197-1.013.593-1.406.395-.394.866-.59 1.413-.59.546 0 1.018.196 1.413.59.395.393.593.862.593 1.406zm22.19 0a1.87 1.87 0 0 1-.592 1.392 1.961 1.961 0 0 1-1.413.576 1.959 1.959 0 0 1-1.413-.576 1.87 1.87 0 0 1-.593-1.392c0-.544.198-1.013.593-1.406.395-.394.866-.59 1.413-.59.546 0 1.017.196 1.413.59.396.393.593.862.593 1.406zm22.191 0a1.87 1.87 0 0 1-.593 1.392 1.959 1.959 0 0 1-1.413.576 1.957 1.957 0 0 1-1.412-.576 1.867 1.867 0 0 1-.594-1.392c0-.544.198-1.013.594-1.406.395-.394.865-.59 1.412-.59.547 0 1.018.196 1.413.59.395.393.593.862.593 1.406zm22.19 0a1.87 1.87 0 0 1-.592 1.392 1.959 1.959 0 0 1-1.413.576 1.959 1.959 0 0 1-1.413-.576 1.87 1.87 0 0 1-.593-1.392c0-.544.197-1.013.593-1.406.395-.394.866-.59 1.413-.59.546 0 1.017.196 1.413.59.395.393.593.862.593 1.406zm44.382 0a1.87 1.87 0 0 1-.594 1.392 1.959 1.959 0 0 1-1.413.576 1.96 1.96 0 0 1-1.413-.576 1.87 1.87 0 0 1-.592-1.392c0-.544.197-1.013.592-1.406.396-.394.867-.59 1.413-.59.547 0 1.018.196 1.413.59.396.393.594.862.594 1.406zm22.19 0a1.87 1.87 0 0 1-.593 1.392 1.961 1.961 0 0 1-1.413.576 1.959 1.959 0 0 1-1.413-.576 1.87 1.87 0 0 1-.593-1.392c0-.544.198-1.013.593-1.406.395-.394.866-.59 1.413-.59.546 0 1.017.196 1.413.59.395.393.593.862.593 1.406zm22.19 0a1.87 1.87 0 0 1-.593 1.392 1.959 1.959 0 0 1-1.413.576 1.957 1.957 0 0 1-1.413-.576 1.867 1.867 0 0 1-.593-1.392c0-.544.197-1.013.593-1.406.396-.394.866-.59 1.413-.59s1.018.196 1.413.59c.395.393.593.862.593 1.406zm22.19 0a1.87 1.87 0 0 1-.593 1.392 1.958 1.958 0 0 1-1.413.576 1.958 1.958 0 0 1-1.412-.576 1.87 1.87 0 0 1-.594-1.392c0-.544.198-1.013.594-1.406.395-.394.866-.59 1.412-.59.547 0 1.018.196 1.413.59.396.393.594.862.594 1.406zM514.784 45.67a1.87 1.87 0 0 1-.593 1.392 1.959 1.959 0 0 1-1.414.575 1.958 1.958 0 0 1-1.412-.575 1.867 1.867 0 0 1-.593-1.392c0-.544.197-1.014.593-1.407.395-.393.866-.59 1.412-.59.547 0 1.018.197 1.414.59.395.393.593.863.593 1.407zm88.76 0a1.87 1.87 0 0 1-.592 1.392 1.961 1.961 0 0 1-1.413.575 1.959 1.959 0 0 1-1.413-.575 1.87 1.87 0 0 1-.593-1.392c0-.544.198-1.014.593-1.407.395-.393.866-.59 1.413-.59.546 0 1.017.197 1.413.59.396.393.593.863.593 1.407zm22.191 0a1.87 1.87 0 0 1-.593 1.392 1.959 1.959 0 0 1-1.413.575 1.957 1.957 0 0 1-1.412-.575 1.867 1.867 0 0 1-.594-1.392c0-.544.198-1.014.594-1.407.395-.393.865-.59 1.412-.59.547 0 1.018.197 1.413.59.395.393.593.863.593 1.407zm88.762 0a1.87 1.87 0 0 1-.593 1.392 1.961 1.961 0 0 1-1.413.575 1.959 1.959 0 0 1-1.413-.575 1.87 1.87 0 0 1-.593-1.392c0-.544.198-1.014.593-1.407.395-.393.866-.59 1.413-.59.546 0 1.017.197 1.413.59.395.393.593.863.593 1.407zm22.19 0a1.87 1.87 0 0 1-.593 1.392 1.959 1.959 0 0 1-1.413.575 1.957 1.957 0 0 1-1.413-.575 1.867 1.867 0 0 1-.593-1.392c0-.544.197-1.014.593-1.407.396-.393.866-.59 1.413-.59s1.018.197 1.413.59c.395.393.593.863.593 1.407zM4.01-20.008a1.87 1.87 0 0 1-.593 1.392 1.96 1.96 0 0 1-1.413.576 1.96 1.96 0 0 1-1.414-.576 1.87 1.87 0 0 1-.593-1.392c0-.544.198-1.013.593-1.406.396-.394.867-.591 1.414-.591.546 0 1.018.197 1.413.59.395.394.593.863.593 1.407zm22.194 0c0 .545-.197 1.008-.593 1.392a1.959 1.959 0 0 1-1.413.576 1.958 1.958 0 0 1-1.413-.576 1.87 1.87 0 0 1-.593-1.392c0-.544.198-1.013.593-1.406.395-.394.866-.591 1.413-.591s1.018.197 1.413.59c.396.394.593.863.593 1.407zm22.195 0a1.87 1.87 0 0 1-.593 1.392 1.96 1.96 0 0 1-1.413.576 1.96 1.96 0 0 1-1.414-.576 1.87 1.87 0 0 1-.593-1.392c0-.544.198-1.013.593-1.406.396-.394.867-.591 1.414-.591.546 0 1.018.197 1.413.59.395.394.593.863.593 1.407zm22.194 0c0 .545-.197 1.008-.593 1.392a1.959 1.959 0 0 1-1.413.576 1.959 1.959 0 0 1-1.413-.576 1.87 1.87 0 0 1-.594-1.392c0-.544.198-1.013.594-1.406.395-.394.866-.591 1.413-.591s1.018.197 1.413.59c.396.394.593.863.593 1.407zm22.194 0a1.87 1.87 0 0 1-.592 1.392 1.96 1.96 0 0 1-1.414.576 1.961 1.961 0 0 1-1.413-.576 1.87 1.87 0 0 1-.593-1.392c0-.544.198-1.013.593-1.406.396-.394.867-.591 1.413-.591.547 0 1.018.197 1.414.59.395.394.592.863.592 1.407zm22.195 0a1.87 1.87 0 0 1-.593 1.392 1.96 1.96 0 0 1-1.414.576 1.959 1.959 0 0 1-1.412-.576 1.87 1.87 0 0 1-.594-1.392c0-.544.198-1.013.594-1.406.395-.394.866-.591 1.412-.591.547 0 1.019.197 1.414.59.395.394.593.863.593 1.407zm88.778 0a1.87 1.87 0 0 1-.593 1.392 1.96 1.96 0 0 1-1.414.576 1.959 1.959 0 0 1-1.413-.576 1.87 1.87 0 0 1-.593-1.392c0-.544.198-1.013.593-1.406.395-.394.866-.591 1.413-.591s1.018.197 1.414.59c.395.394.593.863.593 1.407zM4.01 1.885a1.87 1.87 0 0 1-.593 1.392 1.96 1.96 0 0 1-1.413.575A1.96 1.96 0 0 1 .59 3.277a1.87 1.87 0 0 1-.593-1.392C-.003 1.34.195.87.59.478c.396-.394.867-.59 1.414-.59.546 0 1.018.196 1.413.59.395.393.593.863.593 1.407zm22.194 0c0 .544-.197 1.008-.593 1.392a1.959 1.959 0 0 1-1.413.575 1.958 1.958 0 0 1-1.413-.575 1.87 1.87 0 0 1-.593-1.392c0-.544.198-1.014.593-1.407.395-.394.866-.59 1.413-.59s1.018.196 1.413.59c.396.393.593.863.593 1.407zm22.195 0a1.87 1.87 0 0 1-.593 1.392 1.96 1.96 0 0 1-1.413.575 1.96 1.96 0 0 1-1.414-.575 1.87 1.87 0 0 1-.593-1.392c0-.544.198-1.014.593-1.407.396-.394.867-.59 1.414-.59.546 0 1.018.196 1.413.59.395.393.593.863.593 1.407zm44.388 0a1.87 1.87 0 0 1-.592 1.392 1.96 1.96 0 0 1-1.414.575 1.961 1.961 0 0 1-1.413-.575 1.87 1.87 0 0 1-.593-1.392c0-.544.198-1.014.593-1.407.396-.394.867-.59 1.413-.59.547 0 1.018.196 1.414.59.395.393.592.863.592 1.407zm22.195 0a1.87 1.87 0 0 1-.593 1.392 1.96 1.96 0 0 1-1.414.575 1.959 1.959 0 0 1-1.412-.575 1.87 1.87 0 0 1-.594-1.392c0-.544.198-1.014.594-1.407.395-.394.866-.59 1.412-.59.547 0 1.019.196 1.414.59.395.393.593.863.593 1.407zm22.194 0a1.87 1.87 0 0 1-.593 1.392 1.96 1.96 0 0 1-1.413.575 1.959 1.959 0 0 1-1.413-.575 1.869 1.869 0 0 1-.594-1.392c0-.544.198-1.014.594-1.407.395-.394.866-.59 1.413-.59s1.018.196 1.413.59c.395.393.593.863.593 1.407zm22.195 0a1.87 1.87 0 0 1-.593 1.392 1.961 1.961 0 0 1-1.414.575 1.959 1.959 0 0 1-1.413-.575 1.87 1.87 0 0 1-.593-1.392c0-.544.198-1.014.593-1.407.395-.394.866-.59 1.413-.59s1.018.196 1.414.59c.395.393.593.863.593 1.407zM4.01 23.777a1.87 1.87 0 0 1-.593 1.392 1.96 1.96 0 0 1-1.413.576 1.96 1.96 0 0 1-1.414-.576 1.87 1.87 0 0 1-.593-1.392c0-.544.198-1.013.593-1.406.396-.394.867-.59 1.414-.59.546 0 1.018.196 1.413.59.395.393.593.862.593 1.406zm22.194 0c0 .545-.197 1.008-.593 1.392a1.959 1.959 0 0 1-1.413.576 1.958 1.958 0 0 1-1.413-.576 1.87 1.87 0 0 1-.593-1.392c0-.544.198-1.013.593-1.406.395-.394.866-.59 1.413-.59s1.018.196 1.413.59c.396.393.593.862.593 1.406zm22.195 0a1.87 1.87 0 0 1-.593 1.392 1.96 1.96 0 0 1-1.413.576 1.96 1.96 0 0 1-1.414-.576 1.87 1.87 0 0 1-.593-1.392c0-.544.198-1.013.593-1.406.396-.394.867-.59 1.414-.59.546 0 1.018.196 1.413.59.395.393.593.862.593 1.406zm22.194 0c0 .545-.197 1.008-.593 1.392a1.959 1.959 0 0 1-1.413.576 1.959 1.959 0 0 1-1.413-.576 1.87 1.87 0 0 1-.594-1.392c0-.544.198-1.013.594-1.406.395-.394.866-.59 1.413-.59s1.018.196 1.413.59c.396.393.593.862.593 1.406zm22.194 0a1.87 1.87 0 0 1-.592 1.392 1.96 1.96 0 0 1-1.414.576 1.961 1.961 0 0 1-1.413-.576 1.87 1.87 0 0 1-.593-1.392c0-.544.198-1.013.593-1.406.396-.394.867-.59 1.413-.59.547 0 1.018.196 1.414.59.395.393.592.862.592 1.406zm44.39 0a1.87 1.87 0 0 1-.594 1.392 1.96 1.96 0 0 1-1.413.576 1.959 1.959 0 0 1-1.413-.576 1.869 1.869 0 0 1-.594-1.392c0-.544.198-1.013.594-1.406.395-.394.866-.59 1.413-.59s1.018.196 1.413.59c.395.393.593.862.593 1.406zm22.194 0a1.87 1.87 0 0 1-.593 1.392 1.961 1.961 0 0 1-1.414.576 1.959 1.959 0 0 1-1.413-.576 1.87 1.87 0 0 1-.593-1.392c0-.544.198-1.013.593-1.406.395-.394.866-.59 1.413-.59s1.018.196 1.414.59c.395.393.593.862.593 1.406zm22.194 0a1.87 1.87 0 0 1-.593 1.392 1.959 1.959 0 0 1-1.413.576 1.959 1.959 0 0 1-1.413-.576 1.867 1.867 0 0 1-.593-1.392c0-.544.197-1.013.593-1.406.395-.394.866-.59 1.413-.59s1.018.196 1.413.59c.395.393.593.862.593 1.406zM48.4 45.67a1.87 1.87 0 0 1-.593 1.392 1.96 1.96 0 0 1-1.413.575 1.96 1.96 0 0 1-1.414-.575 1.87 1.87 0 0 1-.593-1.392c0-.544.198-1.014.593-1.407.396-.393.867-.59 1.414-.59.546 0 1.018.197 1.413.59.395.393.593.863.593 1.407zm22.194 0c0 .544-.197 1.008-.593 1.392a1.959 1.959 0 0 1-1.413.575 1.959 1.959 0 0 1-1.413-.575 1.87 1.87 0 0 1-.594-1.392c0-.544.198-1.014.594-1.407.395-.393.866-.59 1.413-.59s1.018.197 1.413.59c.396.393.593.863.593 1.407zm88.778 0a1.87 1.87 0 0 1-.593 1.392 1.961 1.961 0 0 1-1.414.575 1.959 1.959 0 0 1-1.413-.575 1.87 1.87 0 0 1-.593-1.392c0-.544.198-1.014.593-1.407.395-.393.866-.59 1.413-.59s1.018.197 1.414.59c.395.393.593.863.593 1.407zm22.194 0a1.87 1.87 0 0 1-.593 1.392 1.959 1.959 0 0 1-1.413.575 1.959 1.959 0 0 1-1.413-.575 1.867 1.867 0 0 1-.593-1.392c0-.544.197-1.014.593-1.407.395-.393.866-.59 1.413-.59s1.018.197 1.413.59c.395.393.593.863.593 1.407z"/></g></svg>