<svg xmlns="http://www.w3.org/2000/svg" width="1892" height="71"><path fill="#fff" d="M622.5 66.545a1.96 1.96 0 0 1 1.413-.576 1.96 1.96 0 0 1 1.413.576c.396.384.593.847.593 1.391s-.197 1.013-.593 1.407c-.068.068-.138.13-.21.185a2.245 2.245 0 0 1-.194.218c-.395.394-.866.59-1.413.59a1.934 1.934 0 0 1-1.413-.59 1.916 1.916 0 0 1-.592-1.406c0-.545.197-1.009.592-1.392a2.25 2.25 0 0 1 .194-.168c.062-.081.132-.16.21-.235zm-22.2 0a1.962 1.962 0 0 1 1.414-.576c.547 0 1.018.193 1.414.576.395.384.593.847.593 1.391s-.198 1.013-.593 1.407a2.265 2.265 0 0 1-.19.17 2.23 2.23 0 0 1-.206.233c-.395.394-.866.59-1.413.59a1.933 1.933 0 0 1-1.413-.59 1.917 1.917 0 0 1-.593-1.406c0-.545.198-1.009.593-1.392.056-.055.113-.105.172-.151.065-.088.14-.171.222-.252zm-22.199 0a1.962 1.962 0 0 1 1.414-.576 1.96 1.96 0 0 1 1.414.576c.395.384.592.847.592 1.391s-.197 1.013-.592 1.407a2.276 2.276 0 0 1-.17.152c-.064.087-.136.17-.217.251-.396.394-.867.59-1.413.59a1.933 1.933 0 0 1-1.413-.59 1.917 1.917 0 0 1-.593-1.406c0-.545.197-1.009.593-1.392.049-.048.1-.093.15-.135a2.13 2.13 0 0 1 .235-.268zm-67.19 1.391c0-.544.198-1.007.594-1.39a1.961 1.961 0 0 1 1.413-.577c.547 0 1.018.193 1.414.576.395.384.593.847.593 1.391s-.198 1.013-.593 1.407c-.396.393-.867.59-1.414.59a1.935 1.935 0 0 1-1.413-.59 1.915 1.915 0 0 1-.593-1.407zm-22.199 0c0-.544.198-1.007.593-1.39a1.963 1.963 0 0 1 1.414-.577c.547 0 1.018.193 1.414.576.395.384.593.847.593 1.391s-.198 1.013-.593 1.407c-.396.393-.867.59-1.414.59a1.937 1.937 0 0 1-1.414-.59 1.918 1.918 0 0 1-.593-1.407zm-22.198 0c0-.544.197-1.007.593-1.39a1.962 1.962 0 0 1 1.413-.577 1.96 1.96 0 0 1 1.414.576c.395.384.593.847.593 1.391s-.198 1.013-.593 1.407c-.396.393-.867.59-1.414.59a1.936 1.936 0 0 1-1.413-.59 1.916 1.916 0 0 1-.593-1.407zm-22.2 0c0-.544.198-1.007.594-1.39a1.962 1.962 0 0 1 1.413-.577c.547 0 1.018.193 1.414.576.395.384.593.847.593 1.391s-.198 1.013-.593 1.407c-.396.393-.867.59-1.414.59a1.936 1.936 0 0 1-1.413-.59 1.918 1.918 0 0 1-.593-1.407zm-22.199 0c0-.544.198-1.007.594-1.39a1.962 1.962 0 0 1 1.413-.577 1.96 1.96 0 0 1 1.414.576c.395.384.593.847.593 1.391s-.198 1.013-.593 1.407c-.396.393-.867.59-1.414.59a1.936 1.936 0 0 1-1.413-.59 1.917 1.917 0 0 1-.594-1.407zm-66.596 0c0-.544.197-1.007.593-1.39a1.962 1.962 0 0 1 1.413-.577c.547 0 1.018.193 1.414.576.395.384.593.847.593 1.391s-.198 1.013-.593 1.407c-.396.393-.867.59-1.414.59a1.936 1.936 0 0 1-1.413-.59 1.916 1.916 0 0 1-.593-1.407zm-22.2 0c0-.544.198-1.007.594-1.39a1.962 1.962 0 0 1 1.413-.577 1.96 1.96 0 0 1 1.414.576c.395.384.593.847.593 1.391s-.198 1.013-.593 1.407c-.395.393-.866.59-1.414.59a1.936 1.936 0 0 1-1.413-.59 1.918 1.918 0 0 1-.593-1.407zm-22.198 0c0-.544.197-1.007.593-1.39a1.962 1.962 0 0 1 1.413-.577c.547 0 1.018.193 1.414.576.395.384.593.847.593 1.391s-.198 1.013-.593 1.407c-.396.393-.867.59-1.414.59a1.936 1.936 0 0 1-1.413-.59 1.916 1.916 0 0 1-.593-1.407zm-22.2 0c0-.544.198-1.007.594-1.39a1.962 1.962 0 0 1 1.413-.577 1.96 1.96 0 0 1 1.414.576c.395.384.593.847.593 1.391s-.198 1.013-.593 1.407c-.395.393-.866.59-1.414.59a1.936 1.936 0 0 1-1.413-.59 1.918 1.918 0 0 1-.593-1.407zm288.587-21.882c0-.545.198-1.008.593-1.392a1.961 1.961 0 0 1 1.414-.575 1.96 1.96 0 0 1 1.414.575c.395.384.592.847.592 1.392 0 .544-.197 1.012-.592 1.406-.396.394-.867.59-1.414.59a1.934 1.934 0 0 1-1.414-.59 1.916 1.916 0 0 1-.593-1.406zm-22.198 0c0-.545.197-1.008.593-1.392a1.96 1.96 0 0 1 1.413-.575c.547 0 1.018.192 1.414.575.395.384.593.847.593 1.392 0 .544-.198 1.012-.593 1.406-.396.394-.867.59-1.414.59a1.933 1.933 0 0 1-1.413-.59 1.914 1.914 0 0 1-.593-1.406zm-22.2 0c0-.545.198-1.008.593-1.392a1.962 1.962 0 0 1 1.414-.575 1.96 1.96 0 0 1 1.414.575c.395.384.593.847.593 1.392 0 .544-.198 1.012-.593 1.406-.396.394-.867.59-1.414.59a1.934 1.934 0 0 1-1.414-.59 1.916 1.916 0 0 1-.593-1.406zm-22.198 0c0-.545.197-1.008.593-1.392a1.96 1.96 0 0 1 1.413-.575c.547 0 1.018.192 1.414.575.395.384.593.847.593 1.392 0 .544-.198 1.012-.593 1.406-.396.394-.867.59-1.414.59a1.933 1.933 0 0 1-1.413-.59 1.914 1.914 0 0 1-.593-1.406zm-22.2 0c0-.545.198-1.008.593-1.392a1.962 1.962 0 0 1 1.414-.575c.547 0 1.018.192 1.414.575.395.384.593.847.593 1.392 0 .544-.198 1.012-.593 1.406-.396.394-.867.59-1.414.59a1.935 1.935 0 0 1-1.414-.59 1.916 1.916 0 0 1-.593-1.406zm-22.198 0c0-.545.197-1.008.593-1.392a1.961 1.961 0 0 1 1.413-.575 1.96 1.96 0 0 1 1.414.575c.395.384.593.847.593 1.392 0 .544-.198 1.012-.593 1.406-.396.394-.867.59-1.414.59a1.934 1.934 0 0 1-1.413-.59 1.915 1.915 0 0 1-.593-1.406zm-22.2 0c0-.545.198-1.008.594-1.392a1.961 1.961 0 0 1 1.413-.575c.547 0 1.018.192 1.414.575.395.384.593.847.593 1.392 0 .544-.198 1.012-.593 1.406-.396.394-.867.59-1.414.59a1.934 1.934 0 0 1-1.413-.59 1.916 1.916 0 0 1-.593-1.406zm-22.199 0c0-.545.198-1.008.594-1.392a1.961 1.961 0 0 1 1.413-.575 1.96 1.96 0 0 1 1.414.575c.395.384.593.847.593 1.392 0 .544-.198 1.012-.593 1.406-.396.394-.867.59-1.414.59a1.934 1.934 0 0 1-1.413-.59 1.916 1.916 0 0 1-.594-1.406zm-22.198 0c0-.545.197-1.008.593-1.392a1.961 1.961 0 0 1 1.413-.575c.547 0 1.018.192 1.414.575.395.384.593.847.593 1.392 0 .544-.198 1.012-.593 1.406-.396.394-.867.59-1.414.59a1.934 1.934 0 0 1-1.413-.59 1.916 1.916 0 0 1-.593-1.406zm-22.2 0c0-.545.198-1.008.594-1.392a1.96 1.96 0 0 1 1.413-.575 1.96 1.96 0 0 1 1.414.575c.395.384.593.847.593 1.392 0 .544-.198 1.012-.593 1.406-.396.394-.867.59-1.414.59a1.932 1.932 0 0 1-1.413-.59 1.915 1.915 0 0 1-.594-1.406zm-22.198 0c0-.545.197-1.008.593-1.392a1.961 1.961 0 0 1 1.413-.575c.547 0 1.018.192 1.414.575.395.384.593.847.593 1.392 0 .544-.198 1.012-.593 1.406-.396.394-.867.59-1.414.59a1.934 1.934 0 0 1-1.413-.59 1.915 1.915 0 0 1-.593-1.406zm-22.2 0c0-.545.198-1.008.594-1.392a1.961 1.961 0 0 1 1.413-.575 1.96 1.96 0 0 1 1.414.575c.395.384.593.847.593 1.392 0 .544-.198 1.012-.593 1.406-.395.394-.866.59-1.414.59a1.934 1.934 0 0 1-1.413-.59 1.916 1.916 0 0 1-.593-1.406zm-22.198 0c0-.545.197-1.008.593-1.392a1.961 1.961 0 0 1 1.413-.575c.547 0 1.018.192 1.414.575.395.384.593.847.593 1.392 0 .544-.198 1.012-.593 1.406-.396.394-.867.59-1.414.59a1.934 1.934 0 0 1-1.413-.59 1.915 1.915 0 0 1-.593-1.406zm-22.2 0c0-.545.198-1.008.594-1.392a1.961 1.961 0 0 1 1.413-.575 1.96 1.96 0 0 1 1.414.575c.395.384.593.847.593 1.392 0 .544-.198 1.012-.593 1.406-.395.394-.866.59-1.414.59a1.934 1.934 0 0 1-1.413-.59 1.916 1.916 0 0 1-.593-1.406zM555.31 24.17c0-.545.197-1.008.593-1.392a1.96 1.96 0 0 1 1.413-.575c.547 0 1.018.192 1.414.575.395.384.593.847.593 1.392 0 .544-.198 1.012-.593 1.406-.396.394-.867.59-1.414.59a1.934 1.934 0 0 1-1.413-.59 1.914 1.914 0 0 1-.593-1.406zm-22.2 0c0-.545.198-1.008.593-1.392a1.962 1.962 0 0 1 1.414-.575 1.96 1.96 0 0 1 1.414.575c.395.384.593.847.593 1.392 0 .544-.198 1.012-.593 1.406-.396.394-.867.59-1.414.59a1.935 1.935 0 0 1-1.414-.59 1.916 1.916 0 0 1-.593-1.406zm-44.398 0c0-.545.198-1.008.593-1.392a1.962 1.962 0 0 1 1.414-.575c.547 0 1.018.192 1.414.575.395.384.593.847.593 1.392 0 .544-.198 1.012-.593 1.406-.396.394-.867.59-1.414.59a1.935 1.935 0 0 1-1.414-.59 1.916 1.916 0 0 1-.593-1.406zm-22.198 0c0-.545.197-1.008.593-1.392a1.961 1.961 0 0 1 1.413-.575 1.96 1.96 0 0 1 1.414.575c.395.384.593.847.593 1.392 0 .544-.198 1.012-.593 1.406-.396.394-.867.59-1.414.59a1.934 1.934 0 0 1-1.413-.59 1.915 1.915 0 0 1-.593-1.406zm-22.2 0c0-.545.198-1.008.594-1.392a1.961 1.961 0 0 1 1.413-.575c.547 0 1.018.192 1.414.575.395.384.593.847.593 1.392 0 .544-.198 1.012-.593 1.406-.396.394-.867.59-1.414.59a1.934 1.934 0 0 1-1.413-.59 1.916 1.916 0 0 1-.593-1.406zm-22.199 0c0-.545.198-1.008.594-1.392a1.961 1.961 0 0 1 1.413-.575 1.96 1.96 0 0 1 1.414.575c.395.384.593.847.593 1.392 0 .544-.198 1.012-.593 1.406-.396.394-.867.59-1.414.59a1.934 1.934 0 0 1-1.413-.59 1.916 1.916 0 0 1-.594-1.406zm-22.198 0c0-.545.197-1.008.593-1.392a1.961 1.961 0 0 1 1.413-.575c.547 0 1.018.192 1.414.575.395.384.593.847.593 1.392 0 .544-.198 1.012-.593 1.406-.396.394-.867.59-1.414.59a1.934 1.934 0 0 1-1.413-.59 1.916 1.916 0 0 1-.593-1.406zm-22.2 0c0-.545.198-1.008.594-1.392a1.96 1.96 0 0 1 1.413-.575 1.96 1.96 0 0 1 1.414.575c.395.384.593.847.593 1.392 0 .544-.198 1.012-.593 1.406-.396.394-.867.59-1.414.59a1.933 1.933 0 0 1-1.413-.59 1.915 1.915 0 0 1-.594-1.406zm-22.198 0c0-.545.197-1.008.593-1.392a1.961 1.961 0 0 1 1.413-.575c.547 0 1.018.192 1.414.575.395.384.593.847.593 1.392 0 .544-.198 1.012-.593 1.406-.396.394-.867.59-1.414.59a1.934 1.934 0 0 1-1.413-.59 1.915 1.915 0 0 1-.593-1.406zm-22.2 0c0-.545.198-1.008.594-1.392a1.961 1.961 0 0 1 1.413-.575 1.96 1.96 0 0 1 1.414.575c.395.384.593.847.593 1.392 0 .544-.198 1.012-.593 1.406-.395.394-.866.59-1.414.59a1.934 1.934 0 0 1-1.413-.59 1.916 1.916 0 0 1-.593-1.406zm-44.397 0c0-.545.197-1.008.593-1.392a1.961 1.961 0 0 1 1.413-.575 1.96 1.96 0 0 1 1.414.575c.395.384.593.847.593 1.392 0 .544-.198 1.012-.593 1.406-.395.394-.866.59-1.414.59a1.934 1.934 0 0 1-1.413-.59 1.916 1.916 0 0 1-.593-1.406zM533.11 2.288c0-.544.198-1.007.593-1.391a1.96 1.96 0 0 1 1.414-.576c.547 0 1.018.192 1.414.576.395.384.593.847.593 1.39 0 .545-.198 1.013-.593 1.407-.396.394-.867.59-1.414.59a1.935 1.935 0 0 1-1.414-.59 1.916 1.916 0 0 1-.593-1.406zm-44.398 0c0-.544.198-1.007.593-1.391A1.96 1.96 0 0 1 490.72.32a1.96 1.96 0 0 1 1.414.576c.395.384.593.847.593 1.39 0 .545-.198 1.013-.593 1.407-.396.394-.867.59-1.414.59a1.935 1.935 0 0 1-1.414-.59 1.916 1.916 0 0 1-.593-1.406zm-22.198 0c0-.544.197-1.007.593-1.391A1.96 1.96 0 0 1 468.52.32c.547 0 1.018.192 1.414.576.395.384.593.847.593 1.39 0 .545-.198 1.013-.593 1.407-.396.394-.867.59-1.414.59a1.934 1.934 0 0 1-1.413-.59 1.915 1.915 0 0 1-.593-1.406zm-66.597 0c0-.544.197-1.007.593-1.391a1.96 1.96 0 0 1 1.413-.576 1.96 1.96 0 0 1 1.414.576c.395.384.593.847.593 1.39 0 .545-.198 1.013-.593 1.407-.396.394-.867.59-1.414.59a1.934 1.934 0 0 1-1.413-.59 1.916 1.916 0 0 1-.593-1.406zm-22.2 0c0-.544.198-1.007.594-1.391a1.958 1.958 0 0 1 1.413-.576c.547 0 1.018.192 1.414.576.395.384.593.847.593 1.39 0 .545-.198 1.013-.593 1.407-.396.394-.867.59-1.414.59a1.933 1.933 0 0 1-1.413-.59 1.915 1.915 0 0 1-.594-1.406zm-22.198 0c0-.544.197-1.007.593-1.391a1.96 1.96 0 0 1 1.413-.576 1.96 1.96 0 0 1 1.414.576c.395.384.593.847.593 1.39 0 .545-.198 1.013-.593 1.407-.396.394-.867.59-1.414.59a1.934 1.934 0 0 1-1.413-.59 1.915 1.915 0 0 1-.593-1.406zm-22.2 0c0-.544.198-1.007.594-1.391a1.96 1.96 0 0 1 1.413-.576c.548 0 1.019.192 1.414.576.395.384.593.847.593 1.39 0 .545-.198 1.013-.593 1.407-.395.394-.866.59-1.414.59a1.934 1.934 0 0 1-1.413-.59 1.916 1.916 0 0 1-.593-1.406zm-22.198 0c0-.544.197-1.007.593-1.391a1.96 1.96 0 0 1 1.413-.576 1.96 1.96 0 0 1 1.414.576c.395.384.593.847.593 1.39 0 .545-.198 1.013-.593 1.407-.396.394-.867.59-1.414.59a1.934 1.934 0 0 1-1.413-.59 1.915 1.915 0 0 1-.593-1.406zm-22.2 0c0-.544.198-1.007.594-1.391a1.96 1.96 0 0 1 1.413-.576c.548 0 1.019.192 1.414.576.395.384.593.847.593 1.39 0 .545-.198 1.013-.593 1.407-.395.394-.866.59-1.414.59a1.934 1.934 0 0 1-1.413-.59 1.916 1.916 0 0 1-.593-1.406zM266.286 68.34c0-.545.198-1.009.593-1.392a1.96 1.96 0 0 1 1.414-.576c.546 0 1.017.192 1.412.576.396.383.593.847.593 1.392 0 .544-.197 1.013-.593 1.406-.395.394-.866.59-1.412.59a1.933 1.933 0 0 1-1.414-.59 1.917 1.917 0 0 1-.593-1.406zm-22.19 0c0-.545.198-1.009.593-1.392a1.962 1.962 0 0 1 1.413-.576 1.96 1.96 0 0 1 1.413.576c.395.383.593.847.593 1.392 0 .544-.198 1.013-.593 1.406-.395.394-.866.59-1.413.59a1.934 1.934 0 0 1-1.413-.59 1.916 1.916 0 0 1-.593-1.406zm-44.38 0c0-.545.197-1.009.592-1.392a1.96 1.96 0 0 1 1.413-.576 1.96 1.96 0 0 1 1.413.576c.396.383.593.847.593 1.392 0 .544-.197 1.013-.593 1.406-.395.394-.866.59-1.413.59a1.933 1.933 0 0 1-1.413-.59 1.917 1.917 0 0 1-.593-1.406zm-22.19 0c0-.545.196-1.009.592-1.392a1.96 1.96 0 0 1 1.413-.576 1.96 1.96 0 0 1 1.413.576c.395.383.593.847.593 1.392 0 .544-.198 1.013-.593 1.406-.395.394-.866.59-1.413.59a1.933 1.933 0 0 1-1.413-.59 1.914 1.914 0 0 1-.593-1.406zm-22.191 0c0-.545.198-1.009.593-1.392a1.96 1.96 0 0 1 1.413-.576 1.96 1.96 0 0 1 1.412.576c.396.383.593.847.593 1.392 0 .544-.197 1.013-.593 1.406-.395.394-.865.59-1.412.59a1.933 1.933 0 0 1-1.413-.59 1.917 1.917 0 0 1-.593-1.406zm-22.19 0c0-.545.197-1.009.592-1.392a1.961 1.961 0 0 1 1.413-.576 1.96 1.96 0 0 1 1.413.576c.396.383.593.847.593 1.392 0 .544-.197 1.013-.593 1.406-.395.394-.866.59-1.413.59a1.934 1.934 0 0 1-1.413-.59 1.916 1.916 0 0 1-.592-1.406zm-22.191 0c0-.545.198-1.009.593-1.392a1.96 1.96 0 0 1 1.413-.576 1.96 1.96 0 0 1 1.413.576c.395.383.593.847.593 1.392 0 .544-.198 1.013-.593 1.406-.395.394-.866.59-1.413.59a1.933 1.933 0 0 1-1.413-.59 1.917 1.917 0 0 1-.593-1.406zm-22.19 0c0-.545.197-1.009.593-1.392a1.96 1.96 0 0 1 1.413-.576 1.96 1.96 0 0 1 1.413.576c.395.383.593.847.593 1.392 0 .544-.198 1.013-.593 1.406-.396.394-.867.59-1.413.59a1.933 1.933 0 0 1-1.414-.59 1.917 1.917 0 0 1-.593-1.406zm-22.19 0c0-.545.197-1.009.593-1.392a1.96 1.96 0 0 1 1.412-.576 1.96 1.96 0 0 1 1.413.576c.395.383.593.847.593 1.392 0 .544-.198 1.013-.593 1.406-.395.394-.866.59-1.413.59a1.933 1.933 0 0 1-1.412-.59 1.914 1.914 0 0 1-.594-1.406zm-22.191 0c0-.545.198-1.009.593-1.392a1.96 1.96 0 0 1 1.413-.576c.547 0 1.017.192 1.413.576.396.383.593.847.593 1.392 0 .544-.197 1.013-.593 1.406-.396.394-.866.59-1.413.59a1.932 1.932 0 0 1-1.413-.59 1.917 1.917 0 0 1-.593-1.406zm-22.19 0c0-.545.197-1.009.593-1.392a1.961 1.961 0 0 1 1.412-.576 1.96 1.96 0 0 1 1.413.576c.396.383.594.847.594 1.392 0 .544-.198 1.013-.594 1.406-.395.394-.866.59-1.413.59a1.934 1.934 0 0 1-1.412-.59 1.917 1.917 0 0 1-.593-1.406zm-22.19 0c0-.545.197-1.009.592-1.392a1.96 1.96 0 0 1 1.414-.576 1.96 1.96 0 0 1 1.412.576c.395.383.593.847.593 1.392 0 .544-.198 1.013-.593 1.406-.395.394-.866.59-1.412.59a1.933 1.933 0 0 1-1.414-.59 1.917 1.917 0 0 1-.593-1.406zm266.283-21.893c0-.544.198-1.008.593-1.392a1.959 1.959 0 0 1 1.414-.576c.546 0 1.017.192 1.412.576.396.384.593.848.593 1.392 0 .544-.197 1.013-.593 1.407-.395.393-.866.59-1.412.59a1.933 1.933 0 0 1-1.414-.59 1.917 1.917 0 0 1-.593-1.407zm-22.19 0c0-.544.198-1.008.593-1.392a1.96 1.96 0 0 1 1.413-.576c.547 0 1.018.192 1.413.576.395.384.593.848.593 1.392 0 .544-.198 1.013-.593 1.407-.395.393-.866.59-1.413.59a1.935 1.935 0 0 1-1.413-.59 1.916 1.916 0 0 1-.593-1.407zm-22.19 0c0-.544.197-1.008.593-1.392a1.959 1.959 0 0 1 1.412-.576c.547 0 1.018.192 1.414.576.395.384.593.848.593 1.392 0 .544-.198 1.013-.593 1.407-.396.393-.867.59-1.414.59a1.934 1.934 0 0 1-1.412-.59 1.917 1.917 0 0 1-.593-1.407zm-22.19 0c0-.544.197-1.008.592-1.392a1.959 1.959 0 0 1 1.413-.576 1.96 1.96 0 0 1 1.413.576c.396.384.593.848.593 1.392 0 .544-.197 1.013-.593 1.407-.395.393-.866.59-1.413.59a1.933 1.933 0 0 1-1.413-.59 1.917 1.917 0 0 1-.593-1.407zm-22.19 0c0-.544.196-1.008.592-1.392a1.958 1.958 0 0 1 1.413-.576c.547 0 1.018.192 1.413.576.395.384.593.848.593 1.392 0 .544-.198 1.013-.593 1.407-.395.393-.866.59-1.413.59a1.933 1.933 0 0 1-1.413-.59 1.914 1.914 0 0 1-.593-1.407zm-22.191 0c0-.544.198-1.008.593-1.392a1.959 1.959 0 0 1 1.413-.576c.547 0 1.017.192 1.412.576.396.384.593.848.593 1.392 0 .544-.197 1.013-.593 1.407-.395.393-.865.59-1.412.59a1.933 1.933 0 0 1-1.413-.59 1.917 1.917 0 0 1-.593-1.407zm-44.381 0c0-.544.198-1.008.593-1.392a1.959 1.959 0 0 1 1.413-.576c.547 0 1.018.192 1.413.576.395.384.593.848.593 1.392 0 .544-.198 1.013-.593 1.407-.395.393-.866.59-1.413.59a1.933 1.933 0 0 1-1.413-.59 1.917 1.917 0 0 1-.593-1.407zm-22.19 0c0-.544.197-1.008.593-1.392a1.959 1.959 0 0 1 1.413-.576c.546 0 1.017.192 1.413.576.395.384.593.848.593 1.392 0 .544-.198 1.013-.593 1.407-.396.393-.867.59-1.413.59a1.933 1.933 0 0 1-1.414-.59 1.917 1.917 0 0 1-.593-1.407zm-22.19 0c0-.544.197-1.008.593-1.392a1.958 1.958 0 0 1 1.412-.576c.547 0 1.018.192 1.413.576.395.384.593.848.593 1.392 0 .544-.198 1.013-.593 1.407-.395.393-.866.59-1.413.59a1.933 1.933 0 0 1-1.412-.59 1.914 1.914 0 0 1-.594-1.407zm-22.191 0c0-.544.198-1.008.593-1.392a1.958 1.958 0 0 1 1.413-.576 1.96 1.96 0 0 1 1.413.576c.396.384.593.848.593 1.392 0 .544-.197 1.013-.593 1.407-.396.393-.866.59-1.413.59a1.933 1.933 0 0 1-1.413-.59 1.917 1.917 0 0 1-.593-1.407zm-22.19 0c0-.544.197-1.008.593-1.392a1.96 1.96 0 0 1 1.412-.576c.547 0 1.018.192 1.413.576.396.384.594.848.594 1.392 0 .544-.198 1.013-.594 1.407-.395.393-.866.59-1.413.59a1.934 1.934 0 0 1-1.412-.59 1.917 1.917 0 0 1-.593-1.407zm221.903-21.892c0-.545.198-1.009.593-1.392a1.96 1.96 0 0 1 1.413-.576c.547 0 1.018.192 1.413.576.395.383.593.847.593 1.392 0 .544-.198 1.013-.593 1.406-.395.394-.866.59-1.413.59a1.934 1.934 0 0 1-1.413-.59 1.917 1.917 0 0 1-.593-1.406zm-22.19 0c0-.545.197-1.009.593-1.392a1.958 1.958 0 0 1 1.412-.576c.547 0 1.018.192 1.414.576.395.383.593.847.593 1.392 0 .544-.198 1.013-.593 1.406-.396.394-.867.59-1.414.59a1.933 1.933 0 0 1-1.412-.59 1.917 1.917 0 0 1-.593-1.406zm-22.19 0c0-.545.197-1.009.592-1.392a1.958 1.958 0 0 1 1.413-.576c.547 0 1.018.192 1.413.576.396.383.593.847.593 1.392 0 .544-.197 1.013-.593 1.406-.395.394-.866.59-1.413.59a1.933 1.933 0 0 1-1.413-.59 1.917 1.917 0 0 1-.593-1.406zm-22.19 0c0-.545.196-1.009.592-1.392a1.958 1.958 0 0 1 1.413-.576c.547 0 1.018.192 1.413.576.395.383.593.847.593 1.392 0 .544-.198 1.013-.593 1.406-.395.394-.866.59-1.413.59a1.933 1.933 0 0 1-1.413-.59 1.915 1.915 0 0 1-.593-1.406zm-22.191 0c0-.545.198-1.009.593-1.392a1.958 1.958 0 0 1 1.413-.576c.547 0 1.017.192 1.412.576.396.383.593.847.593 1.392 0 .544-.197 1.013-.593 1.406-.395.394-.865.59-1.412.59a1.933 1.933 0 0 1-1.413-.59 1.918 1.918 0 0 1-.593-1.406zm-22.19 0c0-.545.197-1.009.592-1.392a1.96 1.96 0 0 1 1.413-.576c.547 0 1.018.192 1.413.576.396.383.593.847.593 1.392 0 .544-.197 1.013-.593 1.406-.395.394-.866.59-1.413.59a1.934 1.934 0 0 1-1.413-.59 1.917 1.917 0 0 1-.592-1.406zm-22.191 0c0-.545.198-1.009.593-1.392a1.958 1.958 0 0 1 1.413-.576c.547 0 1.018.192 1.413.576.395.383.593.847.593 1.392 0 .544-.198 1.013-.593 1.406-.395.394-.866.59-1.413.59a1.933 1.933 0 0 1-1.413-.59 1.918 1.918 0 0 1-.593-1.406zm-44.38 0c0-.545.197-1.009.593-1.392a1.958 1.958 0 0 1 1.412-.576c.547 0 1.018.192 1.413.576.395.383.593.847.593 1.392 0 .544-.198 1.013-.593 1.406-.395.394-.866.59-1.413.59a1.933 1.933 0 0 1-1.412-.59 1.915 1.915 0 0 1-.594-1.406zm-22.191 0c0-.545.198-1.009.593-1.392a1.958 1.958 0 0 1 1.413-.576 1.96 1.96 0 0 1 1.413.576c.396.383.593.847.593 1.392 0 .544-.197 1.013-.593 1.406-.396.394-.866.59-1.413.59a1.932 1.932 0 0 1-1.413-.59 1.918 1.918 0 0 1-.593-1.406zm-22.19 0c0-.545.197-1.009.593-1.392a1.96 1.96 0 0 1 1.412-.576c.547 0 1.018.192 1.413.576.396.383.594.847.594 1.392 0 .544-.198 1.013-.594 1.406-.395.394-.866.59-1.413.59a1.934 1.934 0 0 1-1.412-.59 1.917 1.917 0 0 1-.593-1.406zm-22.19 0c0-.545.197-1.009.592-1.392a1.958 1.958 0 0 1 1.414-.576c.546 0 1.017.192 1.412.576.395.383.593.847.593 1.392 0 .544-.198 1.013-.593 1.406-.395.394-.866.59-1.412.59a1.933 1.933 0 0 1-1.414-.59 1.918 1.918 0 0 1-.593-1.406zM244.094 2.662c0-.545.198-1.008.593-1.392A1.962 1.962 0 0 1 246.1.694a1.96 1.96 0 0 1 1.413.576c.395.384.593.847.593 1.392 0 .544-.198 1.013-.593 1.407-.395.393-.866.59-1.413.59a1.935 1.935 0 0 1-1.413-.59 1.916 1.916 0 0 1-.593-1.407zm-88.761 0c0-.545.198-1.008.593-1.392a1.96 1.96 0 0 1 1.413-.576 1.96 1.96 0 0 1 1.412.576c.396.384.593.847.593 1.392 0 .544-.197 1.013-.593 1.407-.395.393-.865.59-1.412.59a1.933 1.933 0 0 1-1.413-.59 1.917 1.917 0 0 1-.593-1.407zm-22.19 0c0-.545.197-1.008.592-1.392a1.961 1.961 0 0 1 1.413-.576 1.96 1.96 0 0 1 1.413.576c.396.384.593.847.593 1.392 0 .544-.197 1.013-.593 1.407-.395.393-.866.59-1.413.59a1.934 1.934 0 0 1-1.413-.59 1.916 1.916 0 0 1-.592-1.407zm-88.762 0c0-.545.198-1.008.593-1.392a1.96 1.96 0 0 1 1.413-.576c.547 0 1.017.192 1.413.576.396.384.593.847.593 1.392 0 .544-.197 1.013-.593 1.407-.396.393-.866.59-1.413.59a1.933 1.933 0 0 1-1.413-.59 1.917 1.917 0 0 1-.593-1.407zm-22.19 0c0-.545.197-1.008.593-1.392a1.961 1.961 0 0 1 1.412-.576 1.96 1.96 0 0 1 1.413.576c.396.384.594.847.594 1.392 0 .544-.198 1.013-.594 1.407-.395.393-.866.59-1.413.59a1.934 1.934 0 0 1-1.412-.59 1.917 1.917 0 0 1-.593-1.407zM1199.62 66.545a1.961 1.961 0 0 1 1.413-.576c.547 0 1.019.193 1.414.576.395.384.593.847.593 1.391 0 .4-.107.76-.32 1.078a1.987 1.987 0 0 1-.479.732c-.395.394-.866.59-1.413.59a1.933 1.933 0 0 1-1.413-.59 1.917 1.917 0 0 1-.593-1.406c0-.397.105-.751.315-1.063a1.92 1.92 0 0 1 .483-.732zm-22.2 0a1.963 1.963 0 0 1 1.414-.576 1.96 1.96 0 0 1 1.414.576c.396.384.593.847.593 1.391 0 .394-.103.748-.31 1.063a1.987 1.987 0 0 1-.484.747c-.395.394-.866.59-1.413.59a1.934 1.934 0 0 1-1.414-.59 1.917 1.917 0 0 1-.593-1.406c0-.391.102-.74.306-1.048.096-.276.259-.525.488-.747zm-22.198 0a1.962 1.962 0 0 1 1.413-.576c.547 0 1.019.193 1.414.576.395.384.593.847.593 1.391 0 .387-.1.736-.3 1.047a1.98 1.98 0 0 1-.49.763c-.395.394-.866.59-1.413.59a1.933 1.933 0 0 1-1.413-.59 1.914 1.914 0 0 1-.593-1.406c0-.385.099-.73.296-1.034.096-.282.26-.535.493-.76zm-67.19 1.391c0-.544.198-1.007.593-1.39a1.962 1.962 0 0 1 1.413-.577c.547 0 1.019.193 1.414.576.395.384.593.847.593 1.391s-.198 1.013-.593 1.407c-.396.393-.867.59-1.414.59a1.936 1.936 0 0 1-1.413-.59 1.918 1.918 0 0 1-.593-1.407zm-22.2 0c0-.544.198-1.007.594-1.39a1.96 1.96 0 0 1 1.413-.577 1.96 1.96 0 0 1 1.414.576c.396.384.594.847.594 1.391s-.198 1.013-.594 1.407c-.395.393-.866.59-1.414.59a1.935 1.935 0 0 1-1.413-.59 1.916 1.916 0 0 1-.593-1.407zm-22.198 0c0-.544.198-1.007.593-1.39a1.963 1.963 0 0 1 1.413-.577c.547 0 1.019.193 1.414.576.395.384.593.847.593 1.391s-.198 1.013-.593 1.407c-.395.393-.867.59-1.414.59a1.937 1.937 0 0 1-1.413-.59 1.917 1.917 0 0 1-.593-1.407zm-22.2 0c0-.544.199-1.007.594-1.39a1.96 1.96 0 0 1 1.413-.577 1.96 1.96 0 0 1 1.414.576c.396.384.593.847.593 1.391s-.197 1.013-.593 1.407c-.395.393-.866.59-1.413.59a1.935 1.935 0 0 1-1.414-.59 1.917 1.917 0 0 1-.593-1.407zm-22.198 0c0-.544.198-1.007.593-1.39a1.962 1.962 0 0 1 1.414-.577c.546 0 1.018.193 1.413.576.396.384.593.847.593 1.391s-.197 1.013-.593 1.407c-.395.393-.867.59-1.413.59a1.936 1.936 0 0 1-1.414-.59 1.918 1.918 0 0 1-.593-1.407zm-66.597 0c0-.544.198-1.007.593-1.39a1.963 1.963 0 0 1 1.414-.577c.546 0 1.018.193 1.413.576.396.384.593.847.593 1.391s-.197 1.013-.593 1.407c-.395.393-.867.59-1.413.59a1.937 1.937 0 0 1-1.414-.59 1.917 1.917 0 0 1-.593-1.407zm-22.199 0c0-.544.198-1.007.593-1.39a1.962 1.962 0 0 1 1.414-.577c.547 0 1.018.193 1.413.576.396.384.594.847.594 1.391s-.198 1.013-.594 1.407c-.395.393-.866.59-1.413.59a1.936 1.936 0 0 1-1.414-.59 1.916 1.916 0 0 1-.593-1.407zm-22.199 0c0-.544.198-1.007.593-1.39a1.962 1.962 0 0 1 1.414-.577c.546 0 1.018.193 1.413.576.396.384.593.847.593 1.391s-.197 1.013-.593 1.407c-.395.393-.867.59-1.413.59a1.936 1.936 0 0 1-1.414-.59 1.918 1.918 0 0 1-.593-1.407zm-22.199 0c0-.544.198-1.007.594-1.39a1.961 1.961 0 0 1 1.413-.577 1.96 1.96 0 0 1 1.413.576c.396.384.594.847.594 1.391s-.198 1.013-.594 1.407c-.395.393-.866.59-1.413.59a1.935 1.935 0 0 1-1.413-.59 1.915 1.915 0 0 1-.594-1.407zm289.18-23.274a1.961 1.961 0 0 1 1.413-.575c.547 0 1.019.192 1.414.575.395.384.593.847.593 1.392 0 .392-.103.744-.308 1.058a1.986 1.986 0 0 1-.482.742c-.395.393-.866.59-1.413.59a1.933 1.933 0 0 1-1.413-.59 1.914 1.914 0 0 1-.593-1.407c0-.39.101-.738.303-1.045.097-.273.259-.52.486-.74zm-22.792 1.392c0-.545.198-1.008.593-1.392a1.961 1.961 0 0 1 1.413-.575c.547 0 1.018.192 1.414.575.395.384.593.847.593 1.392 0 .544-.198 1.012-.593 1.406-.396.394-.867.59-1.414.59a1.934 1.934 0 0 1-1.413-.59 1.916 1.916 0 0 1-.593-1.406zm-22.2 0c0-.545.198-1.008.594-1.392a1.96 1.96 0 0 1 1.414-.575 1.96 1.96 0 0 1 1.413.575c.396.384.594.847.594 1.392 0 .544-.198 1.012-.594 1.406-.395.394-.867.59-1.413.59a1.933 1.933 0 0 1-1.414-.59 1.915 1.915 0 0 1-.594-1.406zm-22.198 0c0-.545.198-1.008.593-1.392a1.962 1.962 0 0 1 1.413-.575c.547 0 1.019.192 1.414.575.395.384.593.847.593 1.392 0 .544-.198 1.012-.593 1.406-.396.394-.867.59-1.414.59a1.934 1.934 0 0 1-1.413-.59 1.916 1.916 0 0 1-.593-1.406zm-22.2 0c0-.545.198-1.008.594-1.392a1.96 1.96 0 0 1 1.413-.575 1.96 1.96 0 0 1 1.414.575c.396.384.594.847.594 1.392 0 .544-.198 1.012-.594 1.406-.395.394-.866.59-1.414.59a1.933 1.933 0 0 1-1.413-.59 1.914 1.914 0 0 1-.593-1.406zm-22.198 0c0-.545.198-1.008.593-1.392a1.962 1.962 0 0 1 1.413-.575c.547 0 1.019.192 1.414.575.395.384.593.847.593 1.392 0 .544-.198 1.012-.593 1.406-.395.394-.867.59-1.414.59a1.935 1.935 0 0 1-1.413-.59 1.916 1.916 0 0 1-.593-1.406zm-22.2 0c0-.545.199-1.008.594-1.392a1.96 1.96 0 0 1 1.413-.575 1.96 1.96 0 0 1 1.414.575c.396.384.593.847.593 1.392 0 .544-.197 1.012-.593 1.406-.395.394-.866.59-1.413.59a1.932 1.932 0 0 1-1.414-.59 1.916 1.916 0 0 1-.593-1.406zm-22.198 0c0-.545.198-1.008.593-1.392a1.961 1.961 0 0 1 1.414-.575c.546 0 1.018.192 1.413.575.396.384.593.847.593 1.392 0 .544-.197 1.012-.593 1.406-.395.394-.867.59-1.413.59a1.934 1.934 0 0 1-1.414-.59 1.916 1.916 0 0 1-.593-1.406zm-22.2 0c0-.545.199-1.008.594-1.392a1.962 1.962 0 0 1 1.413-.575 1.96 1.96 0 0 1 1.414.575c.396.384.593.847.593 1.392 0 .544-.197 1.012-.593 1.406-.395.394-.866.59-1.414.59a1.934 1.934 0 0 1-1.413-.59 1.916 1.916 0 0 1-.593-1.406zm-22.198 0c0-.545.197-1.008.593-1.392a1.96 1.96 0 0 1 1.414-.575c.547 0 1.018.192 1.413.575.396.384.594.847.594 1.392 0 .544-.198 1.012-.594 1.406-.395.394-.866.59-1.413.59a1.933 1.933 0 0 1-1.414-.59 1.914 1.914 0 0 1-.593-1.406zm-22.199 0c0-.545.198-1.008.593-1.392a1.962 1.962 0 0 1 1.414-.575 1.96 1.96 0 0 1 1.413.575c.396.384.593.847.593 1.392 0 .544-.197 1.012-.593 1.406-.395.394-.867.59-1.413.59a1.935 1.935 0 0 1-1.414-.59 1.916 1.916 0 0 1-.593-1.406zm-22.199 0c0-.545.198-1.008.593-1.392a1.961 1.961 0 0 1 1.414-.575c.547 0 1.018.192 1.413.575.396.384.594.847.594 1.392 0 .544-.198 1.012-.594 1.406-.395.394-.866.59-1.413.59a1.934 1.934 0 0 1-1.414-.59 1.915 1.915 0 0 1-.593-1.406zm-22.199 0c0-.545.198-1.008.593-1.392a1.961 1.961 0 0 1 1.414-.575c.546 0 1.018.192 1.413.575.396.384.593.847.593 1.392 0 .544-.197 1.012-.593 1.406-.395.394-.867.59-1.413.59a1.934 1.934 0 0 1-1.414-.59 1.916 1.916 0 0 1-.593-1.406zm-22.199 0c0-.545.198-1.008.594-1.392a1.96 1.96 0 0 1 1.413-.575 1.96 1.96 0 0 1 1.413.575c.396.384.594.847.594 1.392 0 .544-.198 1.012-.594 1.406-.395.394-.866.59-1.413.59a1.933 1.933 0 0 1-1.413-.59 1.914 1.914 0 0 1-.594-1.406zm266.98-23.275a1.961 1.961 0 0 1 1.414-.575c.547 0 1.018.192 1.414.575.395.384.593.847.593 1.392 0 .39-.102.741-.305 1.054a1.99 1.99 0 0 1-.48.736c-.396.394-.866.59-1.413.59a1.935 1.935 0 0 1-1.414-.59 1.917 1.917 0 0 1-.592-1.406c0-.388.1-.735.3-1.041.097-.271.258-.516.484-.735zm-22.792 1.392c0-.545.198-1.008.594-1.392a1.96 1.96 0 0 1 1.414-.575 1.96 1.96 0 0 1 1.413.575c.396.384.594.847.594 1.392 0 .544-.198 1.012-.594 1.406-.395.394-.867.59-1.413.59a1.934 1.934 0 0 1-1.414-.59 1.915 1.915 0 0 1-.594-1.406zm-44.397 0c0-.545.197-1.008.593-1.392a1.96 1.96 0 0 1 1.413-.575 1.96 1.96 0 0 1 1.414.575c.396.384.594.847.594 1.392 0 .544-.198 1.012-.594 1.406-.395.394-.866.59-1.414.59a1.933 1.933 0 0 1-1.413-.59 1.914 1.914 0 0 1-.593-1.406zm-22.199 0c0-.545.198-1.008.593-1.392a1.962 1.962 0 0 1 1.413-.575c.547 0 1.019.192 1.414.575.395.384.593.847.593 1.392 0 .544-.198 1.012-.593 1.406-.395.394-.867.59-1.414.59a1.935 1.935 0 0 1-1.413-.59 1.916 1.916 0 0 1-.593-1.406zm-22.2 0c0-.545.199-1.008.594-1.392a1.96 1.96 0 0 1 1.413-.575 1.96 1.96 0 0 1 1.414.575c.396.384.593.847.593 1.392 0 .544-.197 1.012-.593 1.406-.395.394-.866.59-1.413.59a1.933 1.933 0 0 1-1.414-.59 1.916 1.916 0 0 1-.593-1.406zm-22.198 0c0-.545.198-1.008.593-1.392a1.961 1.961 0 0 1 1.414-.575c.546 0 1.018.192 1.413.575.396.384.593.847.593 1.392 0 .544-.197 1.012-.593 1.406-.395.394-.867.59-1.413.59a1.934 1.934 0 0 1-1.414-.59 1.916 1.916 0 0 1-.593-1.406zm-22.2 0c0-.545.199-1.008.594-1.392a1.962 1.962 0 0 1 1.413-.575 1.96 1.96 0 0 1 1.414.575c.396.384.593.847.593 1.392 0 .544-.197 1.012-.593 1.406-.395.394-.866.59-1.414.59a1.935 1.935 0 0 1-1.413-.59 1.916 1.916 0 0 1-.593-1.406zm-22.198 0c0-.545.197-1.008.593-1.392a1.96 1.96 0 0 1 1.414-.575c.547 0 1.018.192 1.413.575.396.384.594.847.594 1.392 0 .544-.198 1.012-.594 1.406-.395.394-.866.59-1.413.59a1.934 1.934 0 0 1-1.414-.59 1.914 1.914 0 0 1-.593-1.406zm-22.199 0c0-.545.198-1.008.593-1.392a1.962 1.962 0 0 1 1.414-.575 1.96 1.96 0 0 1 1.413.575c.396.384.593.847.593 1.392 0 .544-.197 1.012-.593 1.406-.395.394-.867.59-1.413.59a1.935 1.935 0 0 1-1.414-.59 1.916 1.916 0 0 1-.593-1.406zm-22.199 0c0-.545.198-1.008.593-1.392a1.961 1.961 0 0 1 1.414-.575c.547 0 1.018.192 1.413.575.396.384.594.847.594 1.392 0 .544-.198 1.012-.594 1.406-.395.394-.866.59-1.413.59a1.934 1.934 0 0 1-1.414-.59 1.915 1.915 0 0 1-.593-1.406zm-44.398 0c0-.545.198-1.008.594-1.392a1.96 1.96 0 0 1 1.413-.575 1.96 1.96 0 0 1 1.413.575c.396.384.594.847.594 1.392 0 .544-.198 1.012-.594 1.406-.395.394-.866.59-1.413.59a1.934 1.934 0 0 1-1.413-.59 1.914 1.914 0 0 1-.594-1.406zM1110.23 2.288c0-.544.198-1.007.594-1.391a1.959 1.959 0 0 1 1.414-.576c.546 0 1.018.192 1.413.576.396.384.594.847.594 1.39 0 .545-.198 1.013-.594 1.407-.395.394-.867.59-1.413.59a1.934 1.934 0 0 1-1.414-.59 1.915 1.915 0 0 1-.594-1.406zm-44.397 0c0-.544.197-1.007.593-1.391a1.959 1.959 0 0 1 1.413-.576c.548 0 1.019.192 1.414.576.396.384.594.847.594 1.39 0 .545-.198 1.013-.594 1.407-.395.394-.866.59-1.414.59a1.933 1.933 0 0 1-1.413-.59 1.914 1.914 0 0 1-.593-1.406zm-22.199 0c0-.544.198-1.007.593-1.391a1.96 1.96 0 0 1 1.413-.576 1.96 1.96 0 0 1 1.414.576c.395.384.593.847.593 1.39 0 .545-.198 1.013-.593 1.407-.395.394-.867.59-1.414.59a1.935 1.935 0 0 1-1.413-.59 1.916 1.916 0 0 1-.593-1.406zm-66.597 0c0-.544.198-1.007.593-1.391a1.96 1.96 0 0 1 1.413-.576c.548 0 1.019.192 1.414.576.396.384.593.847.593 1.39 0 .545-.197 1.013-.593 1.407-.395.394-.866.59-1.414.59a1.935 1.935 0 0 1-1.413-.59 1.916 1.916 0 0 1-.593-1.406zm-22.199 0c0-.544.197-1.007.593-1.391a1.959 1.959 0 0 1 1.414-.576 1.96 1.96 0 0 1 1.413.576c.396.384.594.847.594 1.39 0 .545-.198 1.013-.594 1.407-.395.394-.866.59-1.413.59a1.934 1.934 0 0 1-1.414-.59 1.914 1.914 0 0 1-.593-1.406zm-22.199 0c0-.544.198-1.007.593-1.391a1.96 1.96 0 0 1 1.414-.576c.546 0 1.018.192 1.413.576.396.384.593.847.593 1.39 0 .545-.197 1.013-.593 1.407-.395.394-.867.59-1.413.59a1.935 1.935 0 0 1-1.414-.59 1.916 1.916 0 0 1-.593-1.406zm-22.199 0c0-.544.198-1.007.593-1.391a1.96 1.96 0 0 1 1.414-.576 1.96 1.96 0 0 1 1.413.576c.396.384.594.847.594 1.39 0 .545-.198 1.013-.594 1.407-.395.394-.866.59-1.413.59a1.934 1.934 0 0 1-1.414-.59 1.915 1.915 0 0 1-.593-1.406zm-22.199 0c0-.544.198-1.007.593-1.391A1.96 1.96 0 0 1 890.25.32a1.96 1.96 0 0 1 1.413.576c.396.384.593.847.593 1.39 0 .545-.197 1.013-.593 1.407-.395.394-.867.59-1.413.59a1.934 1.934 0 0 1-1.414-.59 1.916 1.916 0 0 1-.593-1.406zm-22.199 0c0-.544.198-1.007.594-1.391A1.959 1.959 0 0 1 868.05.32c.547 0 1.018.192 1.413.576.396.384.594.847.594 1.39 0 .545-.198 1.013-.594 1.407-.395.394-.866.59-1.413.59a1.934 1.934 0 0 1-1.413-.59 1.914 1.914 0 0 1-.594-1.406zM843.407 68.34c0-.545.197-1.009.593-1.392a1.962 1.962 0 0 1 1.413-.576 1.96 1.96 0 0 1 1.413.576c.395.383.593.847.593 1.392 0 .544-.198 1.013-.593 1.406-.395.394-.866.59-1.413.59a1.934 1.934 0 0 1-1.413-.59 1.917 1.917 0 0 1-.593-1.406zm-22.19 0c0-.545.197-1.009.593-1.392a1.96 1.96 0 0 1 1.412-.576 1.96 1.96 0 0 1 1.413.576c.396.383.594.847.594 1.392 0 .544-.198 1.013-.594 1.406-.395.394-.866.59-1.413.59a1.933 1.933 0 0 1-1.412-.59 1.914 1.914 0 0 1-.593-1.406zm-44.381 0c0-.545.198-1.009.593-1.392a1.96 1.96 0 0 1 1.413-.576 1.96 1.96 0 0 1 1.413.576c.395.383.593.847.593 1.392 0 .544-.198 1.013-.593 1.406-.395.394-.866.59-1.413.59a1.933 1.933 0 0 1-1.413-.59 1.916 1.916 0 0 1-.593-1.406zm-22.19 0c0-.545.197-1.009.593-1.392a1.96 1.96 0 0 1 1.413-.576c.546 0 1.017.192 1.412.576.396.383.593.847.593 1.392 0 .544-.197 1.013-.593 1.406-.395.394-.866.59-1.412.59a1.933 1.933 0 0 1-1.413-.59 1.917 1.917 0 0 1-.594-1.406zm-22.19 0c0-.545.197-1.009.592-1.392a1.962 1.962 0 0 1 1.413-.576 1.96 1.96 0 0 1 1.413.576c.395.383.593.847.593 1.392 0 .544-.198 1.013-.593 1.406-.395.394-.866.59-1.413.59a1.934 1.934 0 0 1-1.413-.59 1.916 1.916 0 0 1-.593-1.406zm-22.191 0c0-.545.198-1.009.593-1.392a1.96 1.96 0 0 1 1.413-.576 1.96 1.96 0 0 1 1.413.576c.395.383.593.847.593 1.392 0 .544-.198 1.013-.593 1.406-.396.394-.867.59-1.413.59a1.932 1.932 0 0 1-1.413-.59 1.917 1.917 0 0 1-.593-1.406zm-22.19 0c0-.545.197-1.009.593-1.392a1.96 1.96 0 0 1 1.413-.576 1.96 1.96 0 0 1 1.412.576c.396.383.593.847.593 1.392 0 .544-.197 1.013-.593 1.406-.395.394-.866.59-1.412.59a1.932 1.932 0 0 1-1.413-.59 1.917 1.917 0 0 1-.594-1.406zm-22.19 0c0-.545.196-1.009.592-1.392a1.96 1.96 0 0 1 1.413-.576 1.96 1.96 0 0 1 1.413.576c.395.383.593.847.593 1.392 0 .544-.198 1.013-.593 1.406-.395.394-.866.59-1.413.59a1.933 1.933 0 0 1-1.413-.59 1.914 1.914 0 0 1-.593-1.406zm-22.191 0c0-.545.198-1.009.593-1.392a1.96 1.96 0 0 1 1.413-.576 1.96 1.96 0 0 1 1.412.576c.396.383.594.847.594 1.392 0 .544-.198 1.013-.594 1.406-.395.394-.865.59-1.412.59a1.933 1.933 0 0 1-1.413-.59 1.917 1.917 0 0 1-.593-1.406zm199.713-21.893c0-.544.197-1.008.593-1.392a1.96 1.96 0 0 1 1.413-.576c.547 0 1.018.192 1.413.576.395.384.593.848.593 1.392 0 .544-.198 1.013-.593 1.407-.395.393-.866.59-1.413.59a1.935 1.935 0 0 1-1.413-.59 1.917 1.917 0 0 1-.593-1.407zm-22.19 0c0-.544.197-1.008.593-1.392a1.958 1.958 0 0 1 1.412-.576c.547 0 1.018.192 1.413.576.396.384.594.848.594 1.392 0 .544-.198 1.013-.594 1.407-.395.393-.866.59-1.413.59a1.933 1.933 0 0 1-1.412-.59 1.914 1.914 0 0 1-.593-1.407zm-22.19 0c0-.544.197-1.008.592-1.392a1.959 1.959 0 0 1 1.413-.576 1.96 1.96 0 0 1 1.413.576c.396.384.593.848.593 1.392 0 .544-.197 1.013-.593 1.407-.395.393-.866.59-1.413.59a1.933 1.933 0 0 1-1.413-.59 1.917 1.917 0 0 1-.593-1.407zm-22.191 0c0-.544.198-1.008.593-1.392a1.958 1.958 0 0 1 1.413-.576c.547 0 1.018.192 1.413.576.395.384.593.848.593 1.392 0 .544-.198 1.013-.593 1.407-.395.393-.866.59-1.413.59a1.933 1.933 0 0 1-1.413-.59 1.916 1.916 0 0 1-.593-1.407zm-22.19 0c0-.544.197-1.008.593-1.392a1.959 1.959 0 0 1 1.413-.576c.546 0 1.017.192 1.412.576.396.384.593.848.593 1.392 0 .544-.197 1.013-.593 1.407-.395.393-.866.59-1.412.59a1.933 1.933 0 0 1-1.413-.59 1.917 1.917 0 0 1-.594-1.407zm-22.19 0c0-.544.197-1.008.592-1.392a1.96 1.96 0 0 1 1.413-.576c.547 0 1.018.192 1.413.576.395.384.593.848.593 1.392 0 .544-.198 1.013-.593 1.407-.395.393-.866.59-1.413.59a1.935 1.935 0 0 1-1.413-.59 1.916 1.916 0 0 1-.593-1.407zm-44.382 0c0-.544.198-1.008.594-1.392a1.958 1.958 0 0 1 1.413-.576c.546 0 1.017.192 1.412.576.396.384.593.848.593 1.392 0 .544-.197 1.013-.593 1.407-.395.393-.866.59-1.412.59a1.933 1.933 0 0 1-1.413-.59 1.917 1.917 0 0 1-.594-1.407zm-22.19 0c0-.544.197-1.008.593-1.392a1.958 1.958 0 0 1 1.413-.576c.547 0 1.018.192 1.413.576.395.384.593.848.593 1.392 0 .544-.198 1.013-.593 1.407-.395.393-.866.59-1.413.59a1.933 1.933 0 0 1-1.413-.59 1.914 1.914 0 0 1-.593-1.407zm-22.19 0c0-.544.198-1.008.593-1.392a1.959 1.959 0 0 1 1.413-.576c.547 0 1.017.192 1.412.576.396.384.594.848.594 1.392 0 .544-.198 1.013-.594 1.407-.395.393-.865.59-1.412.59a1.933 1.933 0 0 1-1.413-.59 1.917 1.917 0 0 1-.593-1.407zm-22.19 0c0-.544.197-1.008.592-1.392a1.96 1.96 0 0 1 1.413-.576c.547 0 1.018.192 1.413.576.396.384.594.848.594 1.392 0 .544-.198 1.013-.594 1.407-.395.393-.866.59-1.413.59a1.934 1.934 0 0 1-1.413-.59 1.916 1.916 0 0 1-.592-1.407zm-22.19 0c0-.544.197-1.008.592-1.392a1.959 1.959 0 0 1 1.413-.576c.547 0 1.018.192 1.413.576.396.384.593.848.593 1.392 0 .544-.197 1.013-.593 1.407-.395.393-.866.59-1.413.59a1.933 1.933 0 0 1-1.413-.59 1.917 1.917 0 0 1-.593-1.407zm221.903-21.892c0-.545.197-1.009.593-1.392a1.958 1.958 0 0 1 1.412-.576c.547 0 1.018.192 1.413.576.396.383.594.847.594 1.392 0 .544-.198 1.013-.594 1.406-.395.394-.866.59-1.413.59a1.933 1.933 0 0 1-1.412-.59 1.915 1.915 0 0 1-.593-1.406zm-22.19 0c0-.545.197-1.009.592-1.392a1.958 1.958 0 0 1 1.413-.576 1.96 1.96 0 0 1 1.413.576c.396.383.593.847.593 1.392 0 .544-.197 1.013-.593 1.406-.395.394-.866.59-1.413.59a1.933 1.933 0 0 1-1.413-.59 1.918 1.918 0 0 1-.593-1.406zm-22.191 0c0-.545.198-1.009.593-1.392a1.958 1.958 0 0 1 1.413-.576c.547 0 1.018.192 1.413.576.395.383.593.847.593 1.392 0 .544-.198 1.013-.593 1.406-.395.394-.866.59-1.413.59a1.933 1.933 0 0 1-1.413-.59 1.916 1.916 0 0 1-.593-1.406zm-22.19 0c0-.545.197-1.009.593-1.392a1.958 1.958 0 0 1 1.413-.576c.546 0 1.017.192 1.412.576.396.383.593.847.593 1.392 0 .544-.197 1.013-.593 1.406-.395.394-.866.59-1.412.59a1.933 1.933 0 0 1-1.413-.59 1.918 1.918 0 0 1-.594-1.406zm-22.19 0c0-.545.197-1.009.592-1.392a1.96 1.96 0 0 1 1.413-.576c.547 0 1.018.192 1.413.576.395.383.593.847.593 1.392 0 .544-.198 1.013-.593 1.406-.395.394-.866.59-1.413.59a1.934 1.934 0 0 1-1.413-.59 1.917 1.917 0 0 1-.593-1.406zm-22.191 0c0-.545.198-1.009.593-1.392a1.958 1.958 0 0 1 1.413-.576c.546 0 1.017.192 1.413.576.395.383.593.847.593 1.392 0 .544-.198 1.013-.593 1.406-.396.394-.867.59-1.413.59a1.932 1.932 0 0 1-1.413-.59 1.918 1.918 0 0 1-.593-1.406zm-22.19 0c0-.545.197-1.009.593-1.392a1.958 1.958 0 0 1 1.413-.576c.546 0 1.017.192 1.412.576.396.383.593.847.593 1.392 0 .544-.197 1.013-.593 1.406-.395.394-.866.59-1.412.59a1.932 1.932 0 0 1-1.413-.59 1.918 1.918 0 0 1-.594-1.406zm-44.381 0c0-.545.198-1.009.593-1.392a1.958 1.958 0 0 1 1.413-.576c.547 0 1.017.192 1.412.576.396.383.594.847.594 1.392 0 .544-.198 1.013-.594 1.406-.395.394-.865.59-1.412.59a1.933 1.933 0 0 1-1.413-.59 1.918 1.918 0 0 1-.593-1.406zm-22.19 0c0-.545.197-1.009.592-1.392a1.96 1.96 0 0 1 1.413-.576c.547 0 1.018.192 1.413.576.396.383.594.847.594 1.392 0 .544-.198 1.013-.594 1.406-.395.394-.866.59-1.413.59a1.934 1.934 0 0 1-1.413-.59 1.917 1.917 0 0 1-.592-1.406zm-22.19 0c0-.545.197-1.009.592-1.392a1.958 1.958 0 0 1 1.413-.576c.547 0 1.018.192 1.413.576.396.383.593.847.593 1.392 0 .544-.197 1.013-.593 1.406-.395.394-.866.59-1.413.59a1.933 1.933 0 0 1-1.413-.59 1.917 1.917 0 0 1-.593-1.406zm-22.191 0c0-.545.197-1.009.593-1.392a1.958 1.958 0 0 1 1.413-.576c.546 0 1.017.192 1.413.576.395.383.592.847.592 1.392 0 .544-.197 1.013-.592 1.406-.396.394-.867.59-1.413.59a1.933 1.933 0 0 1-1.413-.59 1.917 1.917 0 0 1-.593-1.406zM821.217 2.662c0-.545.197-1.008.593-1.392a1.96 1.96 0 0 1 1.412-.576 1.96 1.96 0 0 1 1.413.576c.396.384.594.847.594 1.392 0 .544-.198 1.013-.594 1.407-.395.393-.866.59-1.413.59a1.933 1.933 0 0 1-1.412-.59 1.914 1.914 0 0 1-.593-1.407zm-88.762 0c0-.545.198-1.008.593-1.392a1.962 1.962 0 0 1 1.413-.576 1.96 1.96 0 0 1 1.413.576c.395.384.593.847.593 1.392 0 .544-.198 1.013-.593 1.407-.395.393-.866.59-1.413.59a1.935 1.935 0 0 1-1.413-.59 1.916 1.916 0 0 1-.593-1.407zm-22.19 0c0-.545.198-1.008.593-1.392a1.96 1.96 0 0 1 1.413-.576 1.96 1.96 0 0 1 1.413.576c.395.384.593.847.593 1.392 0 .544-.198 1.013-.593 1.407-.396.393-.867.59-1.413.59a1.933 1.933 0 0 1-1.413-.59 1.917 1.917 0 0 1-.593-1.407zm-88.761 0c0-.545.197-1.008.592-1.392a1.961 1.961 0 0 1 1.413-.576 1.96 1.96 0 0 1 1.413.576c.396.384.594.847.594 1.392 0 .544-.198 1.013-.594 1.407-.395.393-.866.59-1.413.59a1.934 1.934 0 0 1-1.413-.59 1.916 1.916 0 0 1-.592-1.407zm-22.19 0c0-.545.197-1.008.592-1.392a1.96 1.96 0 0 1 1.413-.576 1.96 1.96 0 0 1 1.413.576c.396.384.593.847.593 1.392 0 .544-.197 1.013-.593 1.407-.395.393-.866.59-1.413.59a1.933 1.933 0 0 1-1.413-.59 1.917 1.917 0 0 1-.593-1.407zm732.675 65.678c0-.545.198-1.009.593-1.392a1.962 1.962 0 0 1 1.42-.576h.005a1.96 1.96 0 0 1 1.413.576c.395.383.593.847.593 1.392 0 .544-.198 1.013-.593 1.406-.395.394-.866.59-1.413.59h-.012a1.934 1.934 0 0 1-1.413-.59 1.917 1.917 0 0 1-.593-1.406zm-22.195 0c0-.545.198-1.009.594-1.392a1.96 1.96 0 0 1 1.413-.576 1.96 1.96 0 0 1 1.413.576c.395.383.593.847.593 1.392 0 .544-.198 1.013-.593 1.406-.395.394-.866.59-1.413.59a1.933 1.933 0 0 1-1.413-.59 1.916 1.916 0 0 1-.594-1.406zm-22.194 0c0-.545.198-1.009.594-1.392a1.96 1.96 0 0 1 1.412-.576c.547 0 1.018.192 1.414.576.395.383.593.847.593 1.392 0 .544-.198 1.013-.593 1.406-.396.394-.867.59-1.414.59a1.933 1.933 0 0 1-1.412-.59 1.917 1.917 0 0 1-.594-1.406zm-22.194 0c0-.545.198-1.009.593-1.392a1.962 1.962 0 0 1 1.413-.576 1.96 1.96 0 0 1 1.413.576c.396.383.593.847.593 1.392 0 .544-.197 1.013-.593 1.406-.395.394-.866.59-1.413.59a1.935 1.935 0 0 1-1.413-.59 1.917 1.917 0 0 1-.593-1.406zm-22.195 0c0-.545.198-1.009.594-1.392a1.96 1.96 0 0 1 1.413-.576 1.96 1.96 0 0 1 1.413.576c.395.383.593.847.593 1.392 0 .544-.198 1.013-.593 1.406-.395.394-.866.59-1.413.59a1.933 1.933 0 0 1-1.413-.59 1.917 1.917 0 0 1-.594-1.406zm-22.194 0c0-.545.198-1.009.593-1.392a1.963 1.963 0 0 1 1.413-.576 1.96 1.96 0 0 1 1.414.576c.395.383.593.847.593 1.392 0 .544-.198 1.013-.593 1.406-.395.394-.867.59-1.414.59a1.935 1.935 0 0 1-1.413-.59 1.917 1.917 0 0 1-.593-1.406zm-88.777 0c0-.545.197-1.009.592-1.392a1.963 1.963 0 0 1 1.414-.576c.547 0 1.017.192 1.413.576.396.383.593.847.593 1.392 0 .544-.197 1.013-.593 1.406-.396.394-.866.59-1.413.59a1.935 1.935 0 0 1-1.414-.59 1.917 1.917 0 0 1-.592-1.406zm199.749-21.893c0-.544.198-1.008.593-1.392a1.96 1.96 0 0 1 1.413-.576c.547 0 1.018.192 1.414.576.395.384.593.848.593 1.392 0 .544-.198 1.013-.593 1.407-.396.393-.867.59-1.414.59a1.935 1.935 0 0 1-1.413-.59 1.917 1.917 0 0 1-.593-1.407zm-22.195 0c0-.544.198-1.008.594-1.392a1.959 1.959 0 0 1 1.413-.576c.547 0 1.018.192 1.413.576.395.384.593.848.593 1.392 0 .544-.198 1.013-.593 1.407-.395.393-.866.59-1.413.59a1.933 1.933 0 0 1-1.413-.59 1.916 1.916 0 0 1-.594-1.407zm-22.194 0c0-.544.198-1.008.594-1.392a1.96 1.96 0 0 1 1.412-.576 1.96 1.96 0 0 1 1.414.576c.395.384.593.848.593 1.392 0 .544-.198 1.013-.593 1.407-.396.393-.867.59-1.414.59a1.934 1.934 0 0 1-1.412-.59 1.917 1.917 0 0 1-.594-1.407zm-44.389 0c0-.544.198-1.008.594-1.392a1.96 1.96 0 0 1 1.413-.576c.547 0 1.018.192 1.413.576.395.384.593.848.593 1.392 0 .544-.198 1.013-.593 1.407-.395.393-.866.59-1.413.59a1.934 1.934 0 0 1-1.413-.59 1.917 1.917 0 0 1-.594-1.407zm-22.194 0c0-.544.198-1.008.593-1.392a1.961 1.961 0 0 1 1.413-.576c.547 0 1.019.192 1.414.576.395.384.593.848.593 1.392 0 .544-.198 1.013-.593 1.407-.395.393-.867.59-1.414.59a1.936 1.936 0 0 1-1.413-.59 1.917 1.917 0 0 1-.593-1.407zm-22.194 0c0-.544.198-1.008.593-1.392a1.959 1.959 0 0 1 1.413-.576c.547 0 1.018.192 1.413.576.396.384.593.848.593 1.392 0 .544-.197 1.013-.593 1.407-.395.393-.866.59-1.413.59a1.933 1.933 0 0 1-1.413-.59 1.917 1.917 0 0 1-.593-1.407zm-22.195 0c0-.544.198-1.008.593-1.392a1.96 1.96 0 0 1 1.414-.576c.547 0 1.018.192 1.413.576.395.384.593.848.593 1.392 0 .544-.198 1.013-.593 1.407-.395.393-.866.59-1.413.59a1.935 1.935 0 0 1-1.414-.59 1.917 1.917 0 0 1-.593-1.407zm155.36-21.892c0-.545.199-1.009.594-1.392a1.96 1.96 0 0 1 1.42-.576h.005c.547 0 1.018.192 1.413.576.395.383.593.847.593 1.392 0 .544-.198 1.013-.593 1.406-.395.394-.866.59-1.413.59h-.012a1.934 1.934 0 0 1-1.413-.59 1.918 1.918 0 0 1-.593-1.406zm-22.194 0c0-.545.198-1.009.594-1.392a1.958 1.958 0 0 1 1.413-.576c.547 0 1.018.192 1.413.576.395.383.593.847.593 1.392 0 .544-.198 1.013-.593 1.406-.395.394-.866.59-1.413.59a1.933 1.933 0 0 1-1.413-.59 1.917 1.917 0 0 1-.594-1.406zm-22.194 0c0-.545.198-1.009.594-1.392a1.959 1.959 0 0 1 1.412-.576 1.96 1.96 0 0 1 1.414.576c.395.383.593.847.593 1.392 0 .544-.198 1.013-.593 1.406-.396.394-.867.59-1.414.59a1.933 1.933 0 0 1-1.412-.59 1.918 1.918 0 0 1-.594-1.406zm-22.194 0c0-.545.198-1.009.593-1.392a1.96 1.96 0 0 1 1.413-.576c.547 0 1.018.192 1.413.576.396.383.593.847.593 1.392 0 .544-.197 1.013-.593 1.406-.395.394-.866.59-1.413.59a1.935 1.935 0 0 1-1.413-.59 1.918 1.918 0 0 1-.593-1.406zm-22.195 0c0-.545.198-1.009.594-1.392a1.959 1.959 0 0 1 1.413-.576c.547 0 1.018.192 1.413.576.395.383.593.847.593 1.392 0 .544-.198 1.013-.593 1.406-.395.394-.866.59-1.413.59a1.933 1.933 0 0 1-1.413-.59 1.918 1.918 0 0 1-.594-1.406zm-44.388 0c0-.545.198-1.009.593-1.392a1.958 1.958 0 0 1 1.413-.576c.547 0 1.018.192 1.413.576.396.383.593.847.593 1.392 0 .544-.197 1.013-.593 1.406-.395.394-.866.59-1.413.59a1.933 1.933 0 0 1-1.413-.59 1.917 1.917 0 0 1-.593-1.406zm-22.195 0c0-.545.198-1.009.593-1.392a1.96 1.96 0 0 1 1.414-.576c.547 0 1.018.192 1.413.576.395.383.593.847.593 1.392 0 .544-.198 1.013-.593 1.406-.395.394-.866.59-1.413.59a1.934 1.934 0 0 1-1.414-.59 1.918 1.918 0 0 1-.593-1.406zm-22.194 0c0-.545.197-1.009.593-1.392a1.958 1.958 0 0 1 1.413-.576c.547 0 1.018.192 1.413.576.396.383.594.847.594 1.392 0 .544-.198 1.013-.594 1.406-.395.394-.866.59-1.413.59a1.933 1.933 0 0 1-1.413-.59 1.915 1.915 0 0 1-.593-1.406zM1287.6 2.662c0-.545.198-1.008.594-1.392a1.96 1.96 0 0 1 1.412-.576c.547 0 1.018.192 1.414.576.395.384.593.847.593 1.392 0 .544-.198 1.013-.593 1.407-.396.393-.867.59-1.414.59a1.934 1.934 0 0 1-1.412-.59 1.917 1.917 0 0 1-.594-1.407zm-22.194 0c0-.545.198-1.008.593-1.392a1.962 1.962 0 0 1 1.413-.576 1.96 1.96 0 0 1 1.413.576c.396.384.593.847.593 1.392 0 .544-.197 1.013-.593 1.407-.395.393-.866.59-1.413.59a1.935 1.935 0 0 1-1.413-.59 1.917 1.917 0 0 1-.593-1.407zm-88.778 0c0-.545.198-1.008.593-1.392a1.962 1.962 0 0 1 1.414-.576 1.96 1.96 0 0 1 1.413.576c.395.384.593.847.593 1.392 0 .544-.198 1.013-.593 1.407-.395.393-.866.59-1.413.59a1.935 1.935 0 0 1-1.414-.59 1.917 1.917 0 0 1-.593-1.407zm-22.194 0c0-.545.197-1.008.593-1.392a1.96 1.96 0 0 1 1.413-.576 1.96 1.96 0 0 1 1.413.576c.396.384.594.847.594 1.392 0 .544-.198 1.013-.594 1.407-.395.393-.866.59-1.413.59a1.933 1.933 0 0 1-1.413-.59 1.914 1.914 0 0 1-.593-1.407zm688.478 65.274c0-.544.197-1.007.592-1.39a1.962 1.962 0 0 1 1.414-.577c.547 0 1.018.193 1.414.576.395.384.593.847.593 1.391s-.198 1.013-.593 1.407c-.396.393-.867.59-1.414.59a1.936 1.936 0 0 1-1.413-.59 1.916 1.916 0 0 1-.593-1.407zm-22.2 0c0-.544.198-1.007.594-1.39a1.962 1.962 0 0 1 1.413-.577c.547 0 1.018.193 1.414.576.395.384.593.847.593 1.391s-.198 1.013-.593 1.407c-.396.393-.867.59-1.414.59a1.936 1.936 0 0 1-1.413-.59 1.918 1.918 0 0 1-.594-1.407zm-22.198 0c0-.544.197-1.007.593-1.39a1.961 1.961 0 0 1 1.413-.577 1.96 1.96 0 0 1 1.413.576c.396.384.594.847.594 1.391s-.198 1.013-.594 1.407c-.395.393-.866.59-1.413.59a1.935 1.935 0 0 1-1.413-.59 1.915 1.915 0 0 1-.593-1.407zm-22.2 0c0-.544.198-1.007.593-1.39a1.963 1.963 0 0 1 1.414-.577c.547 0 1.018.193 1.414.576.395.384.593.847.593 1.391s-.198 1.013-.593 1.407c-.396.393-.867.59-1.414.59a1.937 1.937 0 0 1-1.413-.59 1.918 1.918 0 0 1-.594-1.407zm-22.199 0c0-.544.198-1.007.594-1.39a1.961 1.961 0 0 1 1.413-.577 1.96 1.96 0 0 1 1.413.576c.396.384.594.847.594 1.391s-.198 1.013-.594 1.407c-.395.393-.866.59-1.413.59a1.935 1.935 0 0 1-1.413-.59 1.916 1.916 0 0 1-.594-1.407zm-66.596 0c0-.544.197-1.007.593-1.39a1.961 1.961 0 0 1 1.413-.577c.547 0 1.018.193 1.414.576.395.384.593.847.593 1.391s-.198 1.013-.593 1.407c-.396.393-.867.59-1.414.59a1.935 1.935 0 0 1-1.413-.59 1.915 1.915 0 0 1-.593-1.407zm-22.2 0c0-.544.198-1.007.594-1.39a1.962 1.962 0 0 1 1.413-.577 1.96 1.96 0 0 1 1.414.576c.396.384.593.847.593 1.391s-.197 1.013-.593 1.407c-.396.393-.867.59-1.414.59a1.936 1.936 0 0 1-1.413-.59 1.918 1.918 0 0 1-.594-1.407zm-22.198 0c0-.544.197-1.007.593-1.39a1.961 1.961 0 0 1 1.413-.577 1.96 1.96 0 0 1 1.413.576c.396.384.594.847.594 1.391s-.198 1.013-.594 1.407c-.395.393-.866.59-1.413.59a1.935 1.935 0 0 1-1.413-.59 1.915 1.915 0 0 1-.593-1.407zm-22.2 0c0-.544.198-1.007.594-1.39a1.963 1.963 0 0 1 1.413-.577 1.96 1.96 0 0 1 1.414.576c.396.384.593.847.593 1.391s-.197 1.013-.593 1.407c-.396.393-.866.59-1.414.59a1.937 1.937 0 0 1-1.413-.59 1.917 1.917 0 0 1-.593-1.407zm266.388-21.882c0-.545.198-1.008.593-1.392a1.961 1.961 0 0 1 1.414-.575c.547 0 1.018.192 1.414.575.395.384.593.847.593 1.392 0 .544-.198 1.012-.593 1.406-.396.394-.867.59-1.414.59a1.934 1.934 0 0 1-1.414-.59 1.915 1.915 0 0 1-.593-1.406zm-22.199 0c0-.545.198-1.008.594-1.392a1.961 1.961 0 0 1 1.413-.575c.547 0 1.018.192 1.414.575.395.384.593.847.593 1.392 0 .544-.198 1.012-.593 1.406-.396.394-.867.59-1.414.59a1.934 1.934 0 0 1-1.413-.59 1.916 1.916 0 0 1-.594-1.406zm-22.198 0c0-.545.197-1.008.592-1.392a1.961 1.961 0 0 1 1.414-.575c.547 0 1.018.192 1.414.575.395.384.593.847.593 1.392 0 .544-.198 1.012-.593 1.406-.396.394-.867.59-1.414.59a1.934 1.934 0 0 1-1.413-.59 1.915 1.915 0 0 1-.593-1.406zm-22.2 0c0-.545.198-1.008.594-1.392a1.961 1.961 0 0 1 1.413-.575c.547 0 1.018.192 1.414.575.395.384.593.847.593 1.392 0 .544-.198 1.012-.593 1.406-.396.394-.867.59-1.414.59a1.934 1.934 0 0 1-1.413-.59 1.916 1.916 0 0 1-.594-1.406zm-22.198 0c0-.545.197-1.008.593-1.392a1.96 1.96 0 0 1 1.413-.575 1.96 1.96 0 0 1 1.413.575c.396.384.594.847.594 1.392 0 .544-.198 1.012-.594 1.406-.395.394-.866.59-1.413.59a1.933 1.933 0 0 1-1.413-.59 1.914 1.914 0 0 1-.593-1.406zm-22.2 0c0-.545.198-1.008.593-1.392a1.962 1.962 0 0 1 1.414-.575c.547 0 1.018.192 1.414.575.395.384.593.847.593 1.392 0 .544-.198 1.012-.593 1.406-.396.394-.867.59-1.414.59a1.935 1.935 0 0 1-1.413-.59 1.916 1.916 0 0 1-.594-1.406zm-22.199 0c0-.545.198-1.008.594-1.392a1.96 1.96 0 0 1 1.413-.575 1.96 1.96 0 0 1 1.413.575c.396.384.594.847.594 1.392 0 .544-.198 1.012-.594 1.406-.395.394-.866.59-1.413.59a1.933 1.933 0 0 1-1.413-.59 1.914 1.914 0 0 1-.594-1.406zm-22.198 0c0-.545.197-1.008.593-1.392a1.961 1.961 0 0 1 1.413-.575c.547 0 1.018.192 1.414.575.395.384.593.847.593 1.392 0 .544-.198 1.012-.593 1.406-.396.394-.867.59-1.414.59a1.934 1.934 0 0 1-1.413-.59 1.915 1.915 0 0 1-.593-1.406zm-22.2 0c0-.545.198-1.008.594-1.392a1.96 1.96 0 0 1 1.413-.575 1.96 1.96 0 0 1 1.414.575c.395.384.593.847.593 1.392 0 .544-.198 1.012-.593 1.406-.396.394-.867.59-1.414.59a1.932 1.932 0 0 1-1.413-.59 1.916 1.916 0 0 1-.594-1.406zm-22.198 0c0-.545.197-1.008.593-1.392a1.96 1.96 0 0 1 1.413-.575c.547 0 1.018.192 1.414.575.395.384.593.847.593 1.392 0 .544-.198 1.012-.593 1.406-.396.394-.867.59-1.414.59a1.933 1.933 0 0 1-1.413-.59 1.914 1.914 0 0 1-.593-1.406zm-22.2 0c0-.545.198-1.008.594-1.392a1.962 1.962 0 0 1 1.413-.575 1.96 1.96 0 0 1 1.414.575c.396.384.593.847.593 1.392 0 .544-.197 1.012-.593 1.406-.396.394-.867.59-1.414.59a1.934 1.934 0 0 1-1.413-.59 1.916 1.916 0 0 1-.594-1.406zm-22.198 0c0-.545.197-1.008.593-1.392a1.96 1.96 0 0 1 1.413-.575 1.96 1.96 0 0 1 1.413.575c.396.384.594.847.594 1.392 0 .544-.198 1.012-.594 1.406-.395.394-.866.59-1.413.59a1.933 1.933 0 0 1-1.413-.59 1.914 1.914 0 0 1-.593-1.406zm-22.2 0c0-.545.198-1.008.594-1.392a1.962 1.962 0 0 1 1.413-.575 1.96 1.96 0 0 1 1.414.575c.396.384.593.847.593 1.392 0 .544-.197 1.012-.593 1.406-.396.394-.866.59-1.414.59a1.935 1.935 0 0 1-1.413-.59 1.916 1.916 0 0 1-.593-1.406zM1887.31 24.17c0-.545.198-1.008.593-1.392a1.961 1.961 0 0 1 1.414-.575c.547 0 1.018.192 1.414.575.395.384.593.847.593 1.392 0 .544-.198 1.012-.593 1.406-.396.394-.867.59-1.414.59a1.934 1.934 0 0 1-1.414-.59 1.915 1.915 0 0 1-.593-1.406zm-22.199 0c0-.545.198-1.008.594-1.392a1.961 1.961 0 0 1 1.413-.575c.547 0 1.018.192 1.414.575.395.384.593.847.593 1.392 0 .544-.198 1.012-.593 1.406-.396.394-.867.59-1.414.59a1.934 1.934 0 0 1-1.413-.59 1.916 1.916 0 0 1-.594-1.406zm-44.398 0c0-.545.198-1.008.594-1.392a1.961 1.961 0 0 1 1.413-.575c.547 0 1.018.192 1.414.575.395.384.593.847.593 1.392 0 .544-.198 1.012-.593 1.406-.396.394-.867.59-1.414.59a1.934 1.934 0 0 1-1.413-.59 1.916 1.916 0 0 1-.594-1.406zm-22.198 0c0-.545.197-1.008.593-1.392a1.96 1.96 0 0 1 1.413-.575 1.96 1.96 0 0 1 1.413.575c.396.384.594.847.594 1.392 0 .544-.198 1.012-.594 1.406-.395.394-.866.59-1.413.59a1.934 1.934 0 0 1-1.413-.59 1.914 1.914 0 0 1-.593-1.406zm-22.2 0c0-.545.198-1.008.593-1.392a1.962 1.962 0 0 1 1.414-.575c.547 0 1.018.192 1.414.575.395.384.593.847.593 1.392 0 .544-.198 1.012-.593 1.406-.396.394-.867.59-1.414.59a1.935 1.935 0 0 1-1.413-.59 1.916 1.916 0 0 1-.594-1.406zm-22.199 0c0-.545.198-1.008.594-1.392a1.96 1.96 0 0 1 1.413-.575 1.96 1.96 0 0 1 1.413.575c.396.384.594.847.594 1.392 0 .544-.198 1.012-.594 1.406-.395.394-.866.59-1.413.59a1.934 1.934 0 0 1-1.413-.59 1.914 1.914 0 0 1-.594-1.406zm-22.198 0c0-.545.197-1.008.593-1.392a1.961 1.961 0 0 1 1.413-.575c.547 0 1.018.192 1.414.575.395.384.593.847.593 1.392 0 .544-.198 1.012-.593 1.406-.396.394-.867.59-1.414.59a1.934 1.934 0 0 1-1.413-.59 1.915 1.915 0 0 1-.593-1.406zm-22.2 0c0-.545.198-1.008.594-1.392a1.96 1.96 0 0 1 1.413-.575 1.96 1.96 0 0 1 1.414.575c.395.384.593.847.593 1.392 0 .544-.198 1.012-.593 1.406-.396.394-.867.59-1.414.59a1.933 1.933 0 0 1-1.413-.59 1.916 1.916 0 0 1-.594-1.406zm-22.198 0c0-.545.197-1.008.593-1.392a1.96 1.96 0 0 1 1.413-.575c.547 0 1.018.192 1.414.575.395.384.593.847.593 1.392 0 .544-.198 1.012-.593 1.406-.396.394-.867.59-1.414.59a1.934 1.934 0 0 1-1.413-.59 1.914 1.914 0 0 1-.593-1.406zm-22.2 0c0-.545.198-1.008.594-1.392a1.962 1.962 0 0 1 1.413-.575 1.96 1.96 0 0 1 1.414.575c.396.384.593.847.593 1.392 0 .544-.197 1.012-.593 1.406-.396.394-.867.59-1.414.59a1.935 1.935 0 0 1-1.413-.59 1.916 1.916 0 0 1-.594-1.406zm-44.397 0c0-.545.197-1.008.593-1.392a1.962 1.962 0 0 1 1.413-.575 1.96 1.96 0 0 1 1.414.575c.396.384.593.847.593 1.392 0 .544-.197 1.012-.593 1.406-.396.394-.866.59-1.414.59a1.935 1.935 0 0 1-1.413-.59 1.916 1.916 0 0 1-.593-1.406zM1865.11 2.288c0-.544.198-1.007.594-1.391a1.96 1.96 0 0 1 1.413-.576 1.96 1.96 0 0 1 1.414.576c.395.384.593.847.593 1.39 0 .545-.198 1.013-.593 1.407-.396.394-.867.59-1.414.59a1.934 1.934 0 0 1-1.413-.59 1.916 1.916 0 0 1-.594-1.406zm-44.398 0c0-.544.198-1.007.594-1.391a1.96 1.96 0 0 1 1.413-.576 1.96 1.96 0 0 1 1.414.576c.395.384.593.847.593 1.39 0 .545-.198 1.013-.593 1.407-.396.394-.867.59-1.414.59a1.934 1.934 0 0 1-1.413-.59 1.916 1.916 0 0 1-.594-1.406zm-22.198 0c0-.544.197-1.007.593-1.391a1.959 1.959 0 0 1 1.413-.576c.547 0 1.018.192 1.413.576.396.384.594.847.594 1.39 0 .545-.198 1.013-.594 1.407-.395.394-.866.59-1.413.59a1.934 1.934 0 0 1-1.413-.59 1.914 1.914 0 0 1-.593-1.406zm-66.597 0c0-.544.197-1.007.593-1.391a1.96 1.96 0 0 1 1.413-.576 1.96 1.96 0 0 1 1.414.576c.395.384.593.847.593 1.39 0 .545-.198 1.013-.593 1.407-.396.394-.867.59-1.414.59a1.934 1.934 0 0 1-1.413-.59 1.915 1.915 0 0 1-.593-1.406zm-22.2 0c0-.544.198-1.007.594-1.391a1.958 1.958 0 0 1 1.413-.576c.547 0 1.018.192 1.414.576.395.384.593.847.593 1.39 0 .545-.198 1.013-.593 1.407-.396.394-.867.59-1.414.59a1.933 1.933 0 0 1-1.413-.59 1.916 1.916 0 0 1-.594-1.406zm-22.198 0c0-.544.197-1.007.593-1.391a1.959 1.959 0 0 1 1.413-.576 1.96 1.96 0 0 1 1.414.576c.395.384.593.847.593 1.39 0 .545-.198 1.013-.593 1.407-.396.394-.867.59-1.414.59a1.934 1.934 0 0 1-1.413-.59 1.914 1.914 0 0 1-.593-1.406zm-22.2 0c0-.544.198-1.007.594-1.391a1.96 1.96 0 0 1 1.413-.576c.547 0 1.018.192 1.414.576.396.384.593.847.593 1.39 0 .545-.197 1.013-.593 1.407-.396.394-.867.59-1.414.59a1.935 1.935 0 0 1-1.413-.59 1.916 1.916 0 0 1-.594-1.406zm-22.198 0c0-.544.197-1.007.593-1.391a1.959 1.959 0 0 1 1.413-.576c.547 0 1.018.192 1.413.576.396.384.594.847.594 1.39 0 .545-.198 1.013-.594 1.407-.395.394-.866.59-1.413.59a1.934 1.934 0 0 1-1.413-.59 1.914 1.914 0 0 1-.593-1.406zm-22.2 0c0-.544.198-1.007.594-1.391a1.96 1.96 0 0 1 1.413-.576c.548 0 1.018.192 1.414.576.396.384.593.847.593 1.39 0 .545-.197 1.013-.593 1.407-.396.394-.866.59-1.414.59a1.935 1.935 0 0 1-1.413-.59 1.916 1.916 0 0 1-.593-1.406zm-22.636 66.052c0-.545.198-1.009.594-1.392a1.96 1.96 0 0 1 1.413-.576 1.96 1.96 0 0 1 1.412.576c.396.383.593.847.593 1.392 0 .544-.197 1.013-.593 1.406-.395.394-.866.59-1.412.59a1.932 1.932 0 0 1-1.413-.59 1.917 1.917 0 0 1-.594-1.406zm-22.19 0c0-.545.198-1.009.593-1.392a1.96 1.96 0 0 1 1.413-.576 1.96 1.96 0 0 1 1.413.576c.395.383.593.847.593 1.392 0 .544-.198 1.013-.593 1.406-.395.394-.866.59-1.413.59a1.933 1.933 0 0 1-1.413-.59 1.917 1.917 0 0 1-.593-1.406zm-44.38 0c0-.545.197-1.009.592-1.392a1.96 1.96 0 0 1 1.413-.576c.547 0 1.018.192 1.414.576.395.383.592.847.592 1.392 0 .544-.197 1.013-.592 1.406-.396.394-.867.59-1.414.59a1.933 1.933 0 0 1-1.413-.59 1.917 1.917 0 0 1-.593-1.406zm-22.19 0c0-.545.197-1.009.592-1.392a1.96 1.96 0 0 1 1.413-.576 1.96 1.96 0 0 1 1.413.576c.395.383.593.847.593 1.392 0 .544-.198 1.013-.593 1.406-.395.394-.866.59-1.413.59a1.932 1.932 0 0 1-1.413-.59 1.914 1.914 0 0 1-.593-1.406zm-22.191 0c0-.545.197-1.009.593-1.392a1.96 1.96 0 0 1 1.413-.576 1.96 1.96 0 0 1 1.412.576c.396.383.594.847.594 1.392 0 .544-.198 1.013-.594 1.406-.395.394-.866.59-1.412.59a1.933 1.933 0 0 1-1.413-.59 1.917 1.917 0 0 1-.593-1.406zm-22.19 0c0-.545.197-1.009.592-1.392a1.963 1.963 0 0 1 1.413-.576 1.96 1.96 0 0 1 1.413.576c.395.383.593.847.593 1.392 0 .544-.198 1.013-.593 1.406-.395.394-.866.59-1.413.59a1.935 1.935 0 0 1-1.413-.59 1.916 1.916 0 0 1-.592-1.406zm-22.191 0c0-.545.198-1.009.593-1.392a1.96 1.96 0 0 1 1.413-.576 1.96 1.96 0 0 1 1.413.576c.395.383.593.847.593 1.392 0 .544-.198 1.013-.593 1.406-.396.394-.867.59-1.413.59a1.933 1.933 0 0 1-1.413-.59 1.917 1.917 0 0 1-.593-1.406zm-22.19 0c0-.545.197-1.009.593-1.392a1.96 1.96 0 0 1 1.413-.576c.547 0 1.017.192 1.413.576.395.383.592.847.592 1.392 0 .544-.197 1.013-.592 1.406-.396.394-.866.59-1.413.59a1.933 1.933 0 0 1-1.413-.59 1.917 1.917 0 0 1-.594-1.406zm-22.19 0c0-.545.197-1.009.592-1.392a1.96 1.96 0 0 1 1.413-.576 1.96 1.96 0 0 1 1.413.576c.396.383.593.847.593 1.392 0 .544-.197 1.013-.593 1.406-.395.394-.866.59-1.413.59a1.933 1.933 0 0 1-1.413-.59 1.915 1.915 0 0 1-.592-1.406zm-22.191 0c0-.545.198-1.009.593-1.392a1.96 1.96 0 0 1 1.413-.576 1.96 1.96 0 0 1 1.413.576c.395.383.593.847.593 1.392 0 .544-.198 1.013-.593 1.406-.395.394-.866.59-1.413.59a1.933 1.933 0 0 1-1.413-.59 1.917 1.917 0 0 1-.593-1.406zm-22.19 0c0-.545.197-1.009.592-1.392a1.963 1.963 0 0 1 1.414-.576 1.96 1.96 0 0 1 1.413.576c.395.383.593.847.593 1.392 0 .544-.198 1.013-.593 1.406-.396.394-.867.59-1.413.59a1.935 1.935 0 0 1-1.414-.59 1.916 1.916 0 0 1-.592-1.406zm244.093-21.893c0-.544.198-1.008.594-1.392a1.958 1.958 0 0 1 1.413-.576c.546 0 1.017.192 1.412.576.396.384.593.848.593 1.392 0 .544-.197 1.013-.593 1.407-.395.393-.866.59-1.412.59a1.933 1.933 0 0 1-1.413-.59 1.917 1.917 0 0 1-.594-1.407zm-22.19 0c0-.544.198-1.008.593-1.392a1.96 1.96 0 0 1 1.413-.576c.547 0 1.018.192 1.413.576.395.384.593.848.593 1.392 0 .544-.198 1.013-.593 1.407-.395.393-.866.59-1.413.59a1.934 1.934 0 0 1-1.413-.59 1.917 1.917 0 0 1-.593-1.407zm-22.19 0c0-.544.197-1.008.593-1.392a1.958 1.958 0 0 1 1.412-.576c.547 0 1.018.192 1.413.576.396.384.594.848.594 1.392 0 .544-.198 1.013-.594 1.407-.395.393-.866.59-1.413.59a1.933 1.933 0 0 1-1.412-.59 1.916 1.916 0 0 1-.593-1.407zm-22.19 0c0-.544.197-1.008.592-1.392a1.959 1.959 0 0 1 1.413-.576 1.96 1.96 0 0 1 1.414.576c.395.384.592.848.592 1.392 0 .544-.197 1.013-.592 1.407-.396.393-.867.59-1.414.59a1.933 1.933 0 0 1-1.413-.59 1.917 1.917 0 0 1-.593-1.407zm-22.19 0c0-.544.197-1.008.592-1.392a1.958 1.958 0 0 1 1.413-.576c.547 0 1.018.192 1.413.576.395.384.593.848.593 1.392 0 .544-.198 1.013-.593 1.407-.395.393-.866.59-1.413.59a1.932 1.932 0 0 1-1.413-.59 1.914 1.914 0 0 1-.593-1.407zm-22.191 0c0-.544.197-1.008.593-1.392a1.959 1.959 0 0 1 1.413-.576c.546 0 1.017.192 1.412.576.396.384.594.848.594 1.392 0 .544-.198 1.013-.594 1.407-.395.393-.866.59-1.412.59a1.933 1.933 0 0 1-1.413-.59 1.917 1.917 0 0 1-.593-1.407zm-44.381 0c0-.544.198-1.008.593-1.392a1.959 1.959 0 0 1 1.413-.576c.546 0 1.017.192 1.413.576.395.384.593.848.593 1.392 0 .544-.198 1.013-.593 1.407-.396.393-.867.59-1.413.59a1.933 1.933 0 0 1-1.413-.59 1.917 1.917 0 0 1-.593-1.407zm-22.19 0c0-.544.197-1.008.593-1.392a1.959 1.959 0 0 1 1.413-.576 1.96 1.96 0 0 1 1.413.576c.395.384.592.848.592 1.392 0 .544-.197 1.013-.592 1.407-.396.393-.866.59-1.413.59a1.933 1.933 0 0 1-1.413-.59 1.917 1.917 0 0 1-.594-1.407zm-22.19 0c0-.544.197-1.008.592-1.392a1.958 1.958 0 0 1 1.413-.576c.547 0 1.018.192 1.413.576.396.384.593.848.593 1.392 0 .544-.197 1.013-.593 1.407-.395.393-.866.59-1.413.59a1.933 1.933 0 0 1-1.413-.59 1.915 1.915 0 0 1-.592-1.407zm-22.191 0c0-.544.198-1.008.593-1.392a1.959 1.959 0 0 1 1.413-.576 1.96 1.96 0 0 1 1.413.576c.395.384.593.848.593 1.392 0 .544-.198 1.013-.593 1.407-.395.393-.866.59-1.413.59a1.933 1.933 0 0 1-1.413-.59 1.917 1.917 0 0 1-.593-1.407zm-22.19 0c0-.544.197-1.008.592-1.392a1.96 1.96 0 0 1 1.414-.576c.546 0 1.017.192 1.413.576.395.384.593.848.593 1.392 0 .544-.198 1.013-.593 1.407-.396.393-.867.59-1.413.59a1.936 1.936 0 0 1-1.414-.59 1.916 1.916 0 0 1-.592-1.407zm221.903-21.892c0-.545.198-1.009.593-1.392a1.959 1.959 0 0 1 1.413-.576c.547 0 1.018.192 1.413.576.395.383.593.847.593 1.392 0 .544-.198 1.013-.593 1.406-.395.394-.866.59-1.413.59a1.933 1.933 0 0 1-1.413-.59 1.918 1.918 0 0 1-.593-1.406zm-22.19 0c0-.545.197-1.009.593-1.392a1.958 1.958 0 0 1 1.412-.576c.547 0 1.018.192 1.413.576.396.383.594.847.594 1.392 0 .544-.198 1.013-.594 1.406-.395.394-.866.59-1.413.59a1.933 1.933 0 0 1-1.412-.59 1.916 1.916 0 0 1-.593-1.406zm-22.19 0c0-.545.197-1.009.592-1.392a1.958 1.958 0 0 1 1.413-.576 1.96 1.96 0 0 1 1.414.576c.395.383.592.847.592 1.392 0 .544-.197 1.013-.592 1.406-.396.394-.867.59-1.414.59a1.933 1.933 0 0 1-1.413-.59 1.918 1.918 0 0 1-.593-1.406zm-22.19 0c0-.545.197-1.009.592-1.392a1.957 1.957 0 0 1 1.413-.576c.547 0 1.018.192 1.413.576.395.383.593.847.593 1.392 0 .544-.198 1.013-.593 1.406-.395.394-.866.59-1.413.59a1.932 1.932 0 0 1-1.413-.59 1.915 1.915 0 0 1-.593-1.406zm-22.191 0c0-.545.197-1.009.593-1.392a1.958 1.958 0 0 1 1.413-.576c.546 0 1.017.192 1.412.576.396.383.594.847.594 1.392 0 .544-.198 1.013-.594 1.406-.395.394-.866.59-1.412.59a1.933 1.933 0 0 1-1.413-.59 1.917 1.917 0 0 1-.593-1.406zm-22.19 0c0-.545.197-1.009.592-1.392a1.96 1.96 0 0 1 1.413-.576c.547 0 1.018.192 1.413.576.395.383.593.847.593 1.392 0 .544-.198 1.013-.593 1.406-.395.394-.866.59-1.413.59a1.935 1.935 0 0 1-1.413-.59 1.917 1.917 0 0 1-.592-1.406zm-22.191 0c0-.545.198-1.009.593-1.392a1.958 1.958 0 0 1 1.413-.576c.546 0 1.017.192 1.413.576.395.383.593.847.593 1.392 0 .544-.198 1.013-.593 1.406-.396.394-.867.59-1.413.59a1.933 1.933 0 0 1-1.413-.59 1.918 1.918 0 0 1-.593-1.406zm-44.38 0c0-.545.197-1.009.592-1.392a1.958 1.958 0 0 1 1.413-.576c.547 0 1.018.192 1.413.576.396.383.593.847.593 1.392 0 .544-.197 1.013-.593 1.406-.395.394-.866.59-1.413.59a1.933 1.933 0 0 1-1.413-.59 1.916 1.916 0 0 1-.592-1.406zm-22.191 0c0-.545.198-1.009.593-1.392a1.958 1.958 0 0 1 1.413-.576c.547 0 1.018.192 1.413.576.395.383.593.847.593 1.392 0 .544-.198 1.013-.593 1.406-.395.394-.866.59-1.413.59a1.933 1.933 0 0 1-1.413-.59 1.918 1.918 0 0 1-.593-1.406zm-22.19 0c0-.545.197-1.009.592-1.392a1.96 1.96 0 0 1 1.414-.576c.546 0 1.017.192 1.413.576.395.383.593.847.593 1.392 0 .544-.198 1.013-.593 1.406-.396.394-.867.59-1.413.59a1.935 1.935 0 0 1-1.414-.59 1.917 1.917 0 0 1-.592-1.406zm221.903-21.893c0-.545.198-1.008.593-1.392a1.96 1.96 0 0 1 1.413-.576 1.96 1.96 0 0 1 1.413.576c.395.384.593.847.593 1.392 0 .544-.198 1.013-.593 1.407-.395.393-.866.59-1.413.59a1.934 1.934 0 0 1-1.413-.59 1.917 1.917 0 0 1-.593-1.407zm-88.761 0c0-.545.197-1.008.593-1.392a1.96 1.96 0 0 1 1.413-.576 1.96 1.96 0 0 1 1.412.576c.396.384.594.847.594 1.392 0 .544-.198 1.013-.594 1.407-.395.393-.866.59-1.412.59a1.933 1.933 0 0 1-1.413-.59 1.917 1.917 0 0 1-.593-1.407zm-22.19 0c0-.545.197-1.008.592-1.392a1.963 1.963 0 0 1 1.413-.576 1.96 1.96 0 0 1 1.413.576c.395.384.593.847.593 1.392 0 .544-.198 1.013-.593 1.407-.395.393-.866.59-1.413.59a1.936 1.936 0 0 1-1.413-.59 1.916 1.916 0 0 1-.592-1.407zm-88.762 0c0-.545.198-1.008.593-1.392a1.96 1.96 0 0 1 1.413-.576 1.96 1.96 0 0 1 1.413.576c.395.384.593.847.593 1.392 0 .544-.198 1.013-.593 1.407-.395.393-.866.59-1.413.59a1.933 1.933 0 0 1-1.413-.59 1.917 1.917 0 0 1-.593-1.407zm-22.19 0c0-.545.197-1.008.592-1.392a1.963 1.963 0 0 1 1.414-.576 1.96 1.96 0 0 1 1.413.576c.395.384.593.847.593 1.392 0 .544-.198 1.013-.593 1.407-.396.393-.867.59-1.413.59a1.936 1.936 0 0 1-1.414-.59 1.916 1.916 0 0 1-.592-1.407z"/></svg>