<svg viewBox="0 0 124 64" class="ve-logo" fill="#fff" xmlns="http://www.w3.org/2000/svg" fill-rule="evenodd" clip-rule="evenodd" stroke-linejoin="round" stroke-miterlimit="1.4142"><path d="M120.1587 18.6277v-10.74h-47.9v56.09h47.9v-10.74h-37.16v-12.35h20.76v-10.75h-20.76v-11.51h37.16zm-66.59-10.74l-19.01 45.29-19.01-45.29h-12.08l23.77 56.63h14.64l23.77-56.63h-12.08zm90.78.86c0 4.515-3.715 8.23-8.23 8.23h-.01c-4.509 0-8.22-3.711-8.22-8.22v-.02c0-4.514 3.715-8.23 8.23-8.23 2.938 0 5.662 1.574 7.13 4.12a8.1867 8.1867 0 0 1 1.1 4.12zm-1.59 0a6.406 6.406 0 0 0-1.95-4.7 6.6341 6.6341 0 0 0-4.695-1.949c-1.761 0-3.452.702-4.695 1.949a6.4077 6.4077 0 0 0-2 4.7 6.3732 6.3732 0 0 0 2 4.69 6.6341 6.6341 0 0 0 4.695 1.949c1.761 0 3.452-.702 4.695-1.949a6.3767 6.3767 0 0 0 1.95-4.69zm-10.38-4.4h3.94a3.571 3.571 0 0 1 2.42.67c.498.466.766 1.129.73 1.81.01.564-.194 1.111-.57 1.53-.491.489-1.119.817-1.8.94.269.091.52.23.74.41.273.263.508.563.7.89l1.43 2.55h-2.59a19.5336 19.5336 0 0 0-1.7-3 1.193 1.193 0 0 0-.86-.49c-.09-.011-.18-.011-.27 0v3.46h-2.19l.02-8.77zm2.19 3.73h1c.468.044.939-.065 1.34-.31.245-.189.389-.481.39-.79.002-.308-.139-.599-.38-.79-.374-.24-.817-.35-1.26-.31h-1l-.09 2.2z"/></svg>